<svg width="133" height="23" viewBox="0 0 133 23" fill="none" xmlns="http://www.w3.org/2000/svg">
<path fill-rule="evenodd" clip-rule="evenodd" d="M10.8313 0.662109C16.8213 0.662109 21.6625 5.51976 21.6625 11.4934C21.6625 17.4834 16.8049 22.3246 10.8313 22.3246C4.84124 22.3246 0 17.467 0 11.4934C0 5.50335 4.84124 0.662109 10.8313 0.662109Z" fill="#F26F21"/>
<path fill-rule="evenodd" clip-rule="evenodd" d="M10.8315 21.2412L12.768 18.599H11.4551H11.0777H10.8315H10.6838H10.2079H8.89503L10.8315 21.2412ZM10.8315 18.5826L11.1105 18.0575L11.8982 16.5312H11.2254H11.1762H10.8479H10.5361H10.4541H9.78123L10.8315 18.5826ZM10.8315 8.50626H11.0941H11.849L11.2418 7.25902L10.8479 6.43847L9.84687 8.50626H10.651H10.8315ZM10.8315 6.43847H10.9956H11.0941H12.1608L10.8315 3.86194L9.50224 6.43847H10.569H10.6182H10.8315ZM10.8315 3.86194H11.2746H11.6193H12.4562L10.8315 1.72852L9.20684 3.86194H10.1915H10.3884H10.8315ZM15.1312 18.5826H12.768L14.2614 16.5312L15.1312 18.5826ZM20.2514 14.0203H16.0995L18.118 11.2469L20.2514 14.0203ZM16.083 14.0203L17.3959 16.5312H14.2614L16.083 14.0203ZM16.0174 8.50626H20.1202L18.118 11.2469L16.0174 8.50626ZM16.0174 8.50626L14.4419 6.43847H17.0841L16.0174 8.50626ZM12.1608 6.43847H14.4255L13.2275 8.50626L12.1608 6.43847ZM14.4255 6.43847L12.4562 3.86194H15.9189L14.4255 6.43847ZM10.8315 16.5312L11.9803 14.0203H11.2254H11.1598H10.8151H10.4869H10.4048H9.64994L10.5361 15.9568L10.8315 16.5312ZM10.8315 12.6582L10.9792 12.4121L11.8654 10.8858H10.9956H10.8479H10.6838H9.81405L10.8315 12.6582ZM10.8315 9.81913H10.93H11.0449H11.3895L10.8315 8.50626L10.2736 9.81913H10.651H10.7331H10.8315ZM11.8818 16.5312L13.1783 14.0203L14.2614 16.5312H11.8818ZM13.1783 14.0203H11.9803L12.6039 12.6582L13.1783 14.0203ZM12.2921 11.9197L12.6039 12.6582H11.7834L12.2921 11.9197ZM13.2111 11.3289L13.8676 12.6746H12.6039L13.2111 11.3289ZM13.9168 9.81913L13.2275 11.3289L13.0142 10.9023L12.489 9.81913H13.9168ZM14.6225 11.1977L16.083 14.0203H13.1783L13.8676 12.6582L14.6225 11.1977ZM16.0174 8.50626L14.6389 11.1977L13.2439 8.50626H16.0174ZM12.4726 9.81913L11.8326 8.50626H13.2275L12.4726 9.81913ZM12.4726 9.81913L11.849 10.9023L11.3895 9.81913H12.4726ZM12.2921 11.9197L11.849 10.8858H13.0142L12.2921 11.9197ZM6.53185 18.5826H8.89503L7.40163 16.5312L6.53185 18.5826ZM1.41162 14.0203H5.5636L3.54505 11.2469L1.41162 14.0203ZM5.5636 14.0203L4.25072 16.5312H7.38522L5.5636 14.0203ZM5.64566 8.50626H1.54291L3.54505 11.2469L5.64566 8.50626ZM5.64566 8.50626L7.22111 6.43847H4.57894L5.64566 8.50626ZM9.50224 6.43847H7.22111L8.41911 8.50626L9.50224 6.43847ZM7.22111 6.43847L9.19043 3.86194H5.74412L7.22111 6.43847ZM10.8315 14.0203L10.6182 13.7249L9.87969 12.6582H10.4705H10.5525H10.8315H11.1105H11.7834L10.8315 14.0203ZM9.78123 16.5312L8.48476 14.0203L7.40163 16.5312H9.78123ZM8.48476 14.0203H9.68276L9.05914 12.6582L8.48476 14.0203ZM9.37095 11.9197L9.05914 12.6582H9.87969L9.37095 11.9197ZM8.43553 11.3289L7.77909 12.6746H9.05914L8.43553 11.3289ZM7.74626 9.81913L8.43553 11.3289L8.64887 10.9023L9.17402 9.81913H7.74626ZM7.02418 11.1977L5.5636 14.0203H8.46835L7.77909 12.6582L7.02418 11.1977ZM5.64566 8.50626L7.02418 11.1977L8.41911 8.50626H5.64566ZM9.17402 9.81913L9.81405 8.50626H8.41911L9.17402 9.81913ZM9.17402 9.81913L9.79764 10.9023L10.2571 9.81913H9.17402ZM9.37095 11.9197L9.81405 10.8858H8.64887L9.37095 11.9197Z" fill="white"/>
<path fill-rule="evenodd" clip-rule="evenodd" d="M51.4556 4H49.0924C48.3703 4 47.7795 4.5908 47.7795 5.31288V18.294C50.0607 18.294 52.3582 18.294 54.6393 18.294C55.345 18.294 55.9358 17.7196 55.9358 16.9975V14.6015H51.4556V4ZM27.6761 4H25.3457C24.6072 4 24 4.60721 24 5.3457V18.294H26.3304C27.0689 18.294 27.6761 17.6868 27.6761 16.9483V4ZM37.8345 4H39.8366H40.1977H45.7282V6.396C45.7282 7.10168 45.1374 7.69247 44.4317 7.69247H40.1977V9.5305H44.7927V11.9265C44.7927 12.6322 44.2019 13.223 43.4963 13.223H40.1977V16.9811C40.1977 17.7032 39.6069 18.294 38.8848 18.294H36.5216V5.31288C36.5216 4.5908 37.1124 4 37.8345 4ZM33.9451 4H31.6147C30.8762 4 30.269 4.60721 30.269 5.3457V18.294H32.5994C33.3379 18.294 33.9451 17.6868 33.9451 16.9483V4Z" fill="#242056"/>
<path fill-rule="evenodd" clip-rule="evenodd" d="M71.2897 7.84961H71.3717H74.539H75.1298C75.4088 7.84961 75.6386 8.07936 75.6386 8.35835V9.35942C75.6386 9.63841 75.4088 9.86816 75.1298 9.86816H74.818H71.8148C71.503 9.86816 71.2568 10.1143 71.2568 10.4261V12.2313H74.818H75.1298C75.4088 12.2313 75.6386 12.4611 75.6386 12.7401V13.7412C75.6386 14.0201 75.4088 14.2499 75.1298 14.2499H74.818H71.2568V16.0551C71.2568 16.3669 71.503 16.6131 71.8148 16.6131H74.818H75.1298C75.4088 16.6131 75.6386 16.8428 75.6386 17.1218V18.1229C75.6386 18.4019 75.4088 18.6316 75.1298 18.6316H74.539H71.3717H71.2897C70.1573 18.6316 69.2383 17.7126 69.2383 16.5803V9.90098C69.2383 8.76863 70.1573 7.84961 71.2897 7.84961Z" fill="#242056"/>
<path fill-rule="evenodd" clip-rule="evenodd" d="M120.113 7.84961H120.195H123.362H123.953C124.232 7.84961 124.462 8.07936 124.462 8.35835V9.35942C124.462 9.63841 124.232 9.86816 123.953 9.86816H123.641H120.638C120.326 9.86816 120.08 10.1143 120.08 10.4261V12.2313H123.641H123.953C124.232 12.2313 124.462 12.4611 124.462 12.7401V13.7412C124.462 14.0201 124.232 14.2499 123.953 14.2499H123.641H120.08V16.0551C120.08 16.3669 120.326 16.6131 120.638 16.6131H123.641H123.953C124.232 16.6131 124.462 16.8428 124.462 17.1218V18.1229C124.462 18.4019 124.232 18.6316 123.953 18.6316H123.362H120.195H120.113C118.98 18.6316 118.061 17.7126 118.061 16.5803V9.90098C118.045 8.76863 118.98 7.84961 120.113 7.84961Z" fill="#242056"/>
<path fill-rule="evenodd" clip-rule="evenodd" d="M102.486 8.35835V18.1557C102.486 18.4347 102.716 18.6645 102.995 18.6645H103.996C104.275 18.6645 104.505 18.4347 104.505 18.1557V8.35835C104.505 8.07936 104.275 7.84961 103.996 7.84961H102.995C102.716 7.84961 102.486 8.07936 102.486 8.35835Z" fill="#242056"/>
<path fill-rule="evenodd" clip-rule="evenodd" d="M96.0042 12.3462V9.85175H97.8586C98.5479 9.85175 99.1059 10.4261 99.1059 11.099C99.1059 11.7882 98.5479 12.3462 97.8586 12.3462H96.0042ZM93.9692 8.35835V18.1557C93.9692 18.4347 94.199 18.6645 94.478 18.6645H95.479C95.758 18.6645 95.9878 18.4347 95.9878 18.1557V14.3648H97.0381L99.352 18.287C99.4669 18.5003 99.8115 18.6645 100.091 18.6645H101.19C101.6 18.6645 101.699 18.2706 101.502 17.9424L99.2208 14.0694C100.32 13.5606 101.108 12.4283 101.108 11.1318V11.0826C101.108 9.29378 99.6474 7.84961 97.8751 7.84961H95.479H94.6257H94.4616C94.199 7.84961 93.9692 8.07936 93.9692 8.35835Z" fill="#242056"/>
<path fill-rule="evenodd" clip-rule="evenodd" d="M84.9429 8.35835V14.7258C84.9429 14.7422 84.9429 14.7586 84.9429 14.7586V14.8735C84.9429 16.9577 86.6496 18.6645 88.7338 18.6645C90.818 18.6645 92.5247 16.9577 92.5247 14.8735V14.7258V8.35835C92.5247 8.07936 92.295 7.84961 92.016 7.84961H91.0149C90.736 7.84961 90.5062 8.07936 90.5062 8.35835V14.7258C90.5062 14.7422 90.5062 14.7586 90.5062 14.7586V14.8735C90.5062 15.8418 89.7185 16.6295 88.7502 16.6295C87.782 16.6295 86.9942 15.8418 86.9942 14.8735V14.7094V8.35835C86.9942 8.07936 86.7645 7.84961 86.4855 7.84961H85.4844C85.1726 7.84961 84.9429 8.07936 84.9429 8.35835Z" fill="#242056"/>
<path fill-rule="evenodd" clip-rule="evenodd" d="M112.858 7.84961C110.643 7.84961 108.427 7.84961 106.212 7.84961C105.933 7.84961 105.703 8.07936 105.703 8.35835V9.35942C105.703 9.63841 105.933 9.86816 106.212 9.86816H108.526V18.1393C108.526 18.4183 108.756 18.648 109.035 18.648H110.036C110.315 18.648 110.544 18.4183 110.544 18.1393V9.86816H112.858C113.137 9.86816 113.367 9.63841 113.367 9.35942V8.35835C113.367 8.07936 113.137 7.84961 112.858 7.84961Z" fill="#242056"/>
<path fill-rule="evenodd" clip-rule="evenodd" d="M114.565 8.35835V18.1557C114.565 18.4347 114.795 18.6645 115.074 18.6645H116.075C116.354 18.6645 116.583 18.4347 116.583 18.1557V8.35835C116.583 8.07936 116.354 7.84961 116.075 7.84961H115.074C114.795 7.84961 114.565 8.07936 114.565 8.35835Z" fill="#242056"/>
<path fill-rule="evenodd" clip-rule="evenodd" d="M82.9907 7.84961H80.9557C80.9393 7.84961 80.9393 7.84961 80.9229 7.84961H80.8244C80.4962 7.84961 80.168 7.88243 79.8398 7.96449C79.4951 8.04654 79.1505 8.17783 78.8387 8.35835C78.4941 8.55528 78.1987 8.83427 77.9525 9.14608C77.6571 9.50712 77.4602 9.96663 77.3289 10.4097C77.1484 10.9841 77.0991 11.6241 77.0991 12.2313V14.2663C77.0991 14.8735 77.1648 15.4971 77.3289 16.0715C77.4602 16.531 77.6735 16.9741 77.9525 17.3352C78.1987 17.6634 78.4941 17.926 78.8387 18.1393C79.1505 18.3198 79.4951 18.4675 79.8398 18.5496C80.168 18.6316 80.4962 18.6645 80.8244 18.6645H80.9229C80.9393 18.6645 80.9393 18.6645 80.9557 18.6645H82.9907C83.2697 18.6645 83.4994 18.4347 83.4994 18.1557V17.1546C83.4994 16.8757 83.2697 16.6459 82.9907 16.6459H81.0049H80.9721C80.9557 16.6459 80.9557 16.6459 80.9393 16.6459H80.8408C80.529 16.6459 80.25 16.6295 79.971 16.4654C79.6921 16.3013 79.5115 16.0387 79.3967 15.7269C79.2161 15.2838 79.1669 14.7422 79.1669 14.2663V12.2313C79.1669 11.8375 79.1997 11.4272 79.2982 11.0498C79.5279 10.1964 80.0367 9.86816 80.8408 9.86816H80.9393H80.9557H80.9885H82.9743C83.2532 9.86816 83.483 9.63841 83.483 9.35942V8.35835C83.4994 8.07936 83.2697 7.84961 82.9907 7.84961Z" fill="#242056"/>
<path fill-rule="evenodd" clip-rule="evenodd" d="M66.9567 7.84961H64.2817C62.936 7.84961 61.459 8.25988 60.8518 9.67123C60.3266 10.9185 60.5728 12.5267 61.6888 13.3145C62.0334 13.5606 62.4108 13.7412 62.8047 13.856C63.2314 13.9873 63.6581 14.1022 64.1012 14.2007C64.3145 14.2499 64.5443 14.2991 64.7576 14.3812C64.9217 14.4304 65.0858 14.5125 65.2335 14.6109C65.7587 15.0048 65.7259 15.9895 65.2007 16.3669C64.8889 16.5803 64.4458 16.5967 64.0848 16.5967H61.1472C60.8846 16.5967 60.6549 16.8264 60.6549 17.1218V18.1393C60.6549 18.4183 60.8682 18.6645 61.1472 18.6645H64.0848C64.5279 18.6645 65.0202 18.5988 65.4633 18.5003C65.9064 18.4019 66.3331 18.2214 66.7105 17.9588C67.0716 17.6962 67.367 17.368 67.5803 16.9577C67.8265 16.4818 67.9085 15.9402 67.9085 15.3987C67.9085 14.8899 67.8429 14.3484 67.6131 13.9053C67.4162 13.5442 67.1536 13.2324 66.8254 13.0027C66.4808 12.7565 66.1033 12.5924 65.7095 12.4611C65.2007 12.3134 63.6909 12.0344 63.3135 11.7718C62.8211 11.4272 62.8539 10.4754 63.3463 10.1471C63.6253 9.96663 64.0027 9.93381 64.3309 9.93381H66.9895C67.2521 9.93381 67.4818 9.70405 67.4818 9.40865V8.39117C67.449 8.07936 67.2193 7.84961 66.9567 7.84961Z" fill="#242056"/>
<path fill-rule="evenodd" clip-rule="evenodd" d="M131.879 7.84961H129.204C127.858 7.84961 126.381 8.25988 125.774 9.67123C125.249 10.9185 125.495 12.5267 126.611 13.3145C126.956 13.5606 127.333 13.7412 127.727 13.856C128.154 13.9873 128.58 14.1022 129.024 14.2007C129.253 14.2499 129.467 14.2991 129.68 14.3812C129.844 14.4304 130.008 14.5125 130.156 14.6109C130.681 15.0048 130.648 15.9895 130.123 16.3669C129.811 16.5803 129.368 16.5967 129.007 16.5967H126.07C125.807 16.5967 125.577 16.8264 125.577 17.1218V18.1393C125.577 18.4183 125.791 18.6645 126.07 18.6645H129.007C129.45 18.6645 129.943 18.5988 130.386 18.5003C130.829 18.4019 131.255 18.2214 131.633 17.9588C131.994 17.6962 132.289 17.368 132.503 16.9577C132.749 16.4818 132.831 15.9402 132.831 15.3987C132.831 14.8899 132.765 14.3484 132.535 13.9053C132.339 13.5442 132.076 13.2324 131.748 13.0027C131.403 12.7565 131.026 12.5924 130.632 12.4611C130.123 12.3134 128.613 12.0344 128.236 11.7718C127.743 11.4272 127.776 10.4754 128.269 10.1471C128.548 9.96663 128.925 9.93381 129.253 9.93381H131.912C132.174 9.93381 132.404 9.70405 132.404 9.40865V8.39117C132.371 8.07936 132.158 7.84961 131.879 7.84961Z" fill="#242056"/>
</svg>
