<svg width="115" height="22" viewBox="0 0 115 22" fill="none" xmlns="http://www.w3.org/2000/svg">
<path fill-rule="evenodd" clip-rule="evenodd" d="M110.299 7.15625H110.381H113.548H114.139C114.418 7.15625 114.648 7.386 114.648 7.66499V8.66606C114.648 8.94505 114.418 9.1748 114.139 9.1748H113.827H110.824C110.512 9.1748 110.266 9.42097 110.266 9.73278V11.538H113.827H114.139C114.418 11.538 114.648 11.7677 114.648 12.0467V13.0478C114.648 13.3268 114.418 13.5565 114.139 13.5565H113.827H110.266V15.3617C110.266 15.6736 110.512 15.9197 110.824 15.9197H113.827H114.139C114.418 15.9197 114.648 16.1495 114.648 16.4285V17.4295C114.648 17.7085 114.418 17.9383 114.139 17.9383H113.548H110.381H110.299C109.166 17.9383 108.231 17.0028 108.231 15.8705V9.20762C108.231 8.07527 109.166 7.15625 110.299 7.15625Z" fill="#242056"/>
<path fill-rule="evenodd" clip-rule="evenodd" d="M10.8313 0C16.8213 0 21.6625 4.85765 21.6625 10.8313C21.6625 16.8213 16.8049 21.6625 10.8313 21.6625C4.84124 21.6625 0 16.8049 0 10.8313C0 4.84124 4.84124 0 10.8313 0Z" fill="#F26F21"/>
<path fill-rule="evenodd" clip-rule="evenodd" d="M10.8315 20.5791L12.768 17.9369H11.4551H11.0777H10.8315H10.6838H10.2079H8.89503L10.8315 20.5791ZM10.8315 17.9205L11.1105 17.3953L11.8982 15.8691H11.2254H11.1762H10.8479H10.5361H10.4541H9.78123L10.8315 17.9205ZM10.8315 7.84415H11.0941H11.849L11.2418 6.59691L10.8479 5.77636L9.84687 7.84415H10.651H10.8315ZM10.8315 5.77636H10.9956H11.0941H12.1608L10.8315 3.19984L9.50224 5.77636H10.569H10.6182H10.8315ZM10.8315 3.19984H11.2746H11.6193H12.4562L10.8315 1.06641L9.20684 3.19984H10.1915H10.3884H10.8315ZM15.1312 17.9205H12.768L14.2614 15.8691L15.1312 17.9205ZM20.2514 13.3582H16.0995L18.118 10.5848L20.2514 13.3582ZM16.083 13.3582L17.3959 15.8691H14.2614L16.083 13.3582ZM16.0174 7.84415H20.1202L18.118 10.5848L16.0174 7.84415ZM16.0174 7.84415L14.4419 5.77636H17.0841L16.0174 7.84415ZM12.1608 5.77636H14.4255L13.2275 7.84415L12.1608 5.77636ZM14.4255 5.77636L12.4562 3.19984H15.9189L14.4255 5.77636ZM10.8315 15.8691L11.9803 13.3582H11.2254H11.1598H10.8151H10.4869H10.4048H9.64994L10.5361 15.2947L10.8315 15.8691ZM10.8315 11.9961L10.9792 11.75L11.8654 10.2237H10.9956H10.8479H10.6838H9.81405L10.8315 11.9961ZM10.8315 9.15703H10.93H11.0449H11.3895L10.8315 7.84415L10.2736 9.15703H10.651H10.7331H10.8315ZM11.8818 15.8691L13.1783 13.3582L14.2614 15.8691H11.8818ZM13.1783 13.3582H11.9803L12.6039 11.9961L13.1783 13.3582ZM12.2921 11.2576L12.6039 11.9961H11.7834L12.2921 11.2576ZM13.2111 10.6668L13.8676 12.0125H12.6039L13.2111 10.6668ZM13.9168 9.15703L13.2275 10.6668L13.0142 10.2402L12.489 9.15703H13.9168ZM14.6225 10.5355L16.083 13.3582H13.1783L13.8676 11.9961L14.6225 10.5355ZM16.0174 7.84415L14.6389 10.5355L13.2439 7.84415H16.0174ZM12.4726 9.15703L11.8326 7.84415H13.2275L12.4726 9.15703ZM12.4726 9.15703L11.849 10.2402L11.3895 9.15703H12.4726ZM12.2921 11.2576L11.849 10.2237H13.0142L12.2921 11.2576ZM6.53185 17.9205H8.89503L7.40163 15.8691L6.53185 17.9205ZM1.41162 13.3582H5.5636L3.54505 10.5848L1.41162 13.3582ZM5.5636 13.3582L4.25072 15.8691H7.38522L5.5636 13.3582ZM5.64566 7.84415H1.54291L3.54505 10.5848L5.64566 7.84415ZM5.64566 7.84415L7.22111 5.77636H4.57894L5.64566 7.84415ZM9.50224 5.77636H7.22111L8.41911 7.84415L9.50224 5.77636ZM7.22111 5.77636L9.19043 3.19984H5.74412L7.22111 5.77636ZM10.8315 13.3582L10.6182 13.0628L9.87969 11.9961H10.4705H10.5525H10.8315H11.1105H11.7834L10.8315 13.3582ZM9.78123 15.8691L8.48476 13.3582L7.40163 15.8691H9.78123ZM8.48476 13.3582H9.68276L9.05914 11.9961L8.48476 13.3582ZM9.37095 11.2576L9.05914 11.9961H9.87969L9.37095 11.2576ZM8.43553 10.6668L7.77909 12.0125H9.05914L8.43553 10.6668ZM7.74626 9.15703L8.43553 10.6668L8.64887 10.2402L9.17402 9.15703H7.74626ZM7.02418 10.5355L5.5636 13.3582H8.46835L7.77909 11.9961L7.02418 10.5355ZM5.64566 7.84415L7.02418 10.5355L8.41911 7.84415H5.64566ZM9.17402 9.15703L9.81405 7.84415H8.41911L9.17402 9.15703ZM9.17402 9.15703L9.79764 10.2402L10.2571 9.15703H9.17402ZM9.37095 11.2576L9.81405 10.2237H8.64887L9.37095 11.2576Z" fill="white"/>
<path fill-rule="evenodd" clip-rule="evenodd" d="M51.8257 3.67578H49.4625C48.7404 3.67578 48.1497 4.26658 48.1497 4.98866V17.9698C50.4308 17.9698 52.7283 17.9698 55.0094 17.9698C55.7151 17.9698 56.3059 17.3954 56.3059 16.6733V14.2773H51.8257V3.67578ZM28.0462 3.67578H25.7158C24.9773 3.67578 24.3701 4.28299 24.3701 5.02148V17.9698H26.7005C27.439 17.9698 28.0462 17.3626 28.0462 16.6241V3.67578ZM38.2046 3.67578H40.2067H40.5678H46.0983V6.07179C46.0983 6.77746 45.5075 7.36826 44.8018 7.36826H40.5678V9.20629H45.1628V11.6023C45.1628 12.308 44.5721 12.8988 43.8664 12.8988H40.5678V16.6569C40.5678 17.379 39.977 17.9698 39.2549 17.9698H36.8917V4.98866C36.8917 4.26658 37.4825 3.67578 38.2046 3.67578ZM34.3152 3.67578H31.9848C31.2463 3.67578 30.6391 4.28299 30.6391 5.02148V17.9698H32.9695C33.708 17.9698 34.3152 17.3626 34.3152 16.6241V3.67578Z" fill="#242056"/>
<path d="M97.2839 17.9711C97.1198 17.9711 96.9721 17.9383 96.8409 17.8726C96.6932 17.7906 96.5783 17.6921 96.4962 17.5444L93.0171 10.9964V17.3147V17.4624C93.0171 17.7413 92.7873 17.9711 92.5083 17.9711H91.5073C91.2283 17.9711 90.9985 17.7413 90.9985 17.4624V7.66499C90.9985 7.386 91.2283 7.15625 91.5073 7.15625H92.574C92.8366 7.15625 93.0335 7.20548 93.1648 7.28754C93.2304 7.33677 93.2961 7.386 93.3453 7.45165C93.3945 7.50088 93.4438 7.56652 93.4766 7.64858L96.9065 14.1309V7.81269V7.66499C96.9065 7.386 97.1363 7.15625 97.4152 7.15625C97.7435 7.15625 98.0881 7.15625 98.4163 7.15625C98.6953 7.15625 98.925 7.386 98.925 7.66499V17.4624C98.925 17.7413 98.6953 17.9711 98.4163 17.9711C98.0389 17.9711 97.6614 17.9711 97.2839 17.9711Z" fill="#242056"/>
<path d="M78.1985 17.9711C78.0344 17.9711 77.8867 17.9383 77.7554 17.8726C77.6077 17.7906 77.4928 17.6921 77.4108 17.5444L73.9316 10.9964V17.3147V17.4624C73.9316 17.7413 73.7019 17.9711 73.4229 17.9711H72.4218C72.1428 17.9711 71.9131 17.7413 71.9131 17.4624V7.66499C71.9131 7.386 72.1428 7.15625 72.4218 7.15625H73.4885C73.7511 7.15625 73.9481 7.20548 74.0793 7.28754C74.145 7.33677 74.2106 7.386 74.2599 7.45165C74.3091 7.50088 74.3583 7.56652 74.3911 7.64858L77.821 14.1309V7.81269V7.66499C77.821 7.386 78.0508 7.15625 78.3298 7.15625C78.658 7.15625 79.0026 7.15625 79.3309 7.15625C79.6098 7.15625 79.8396 7.386 79.8396 7.66499V17.4624C79.8396 17.7413 79.6098 17.9711 79.3309 17.9711C78.9698 17.9711 78.5924 17.9711 78.1985 17.9711Z" fill="#242056"/>
<path fill-rule="evenodd" clip-rule="evenodd" d="M62.641 7.15625H62.7231H65.8904H66.4812C66.7602 7.15625 66.9899 7.386 66.9899 7.66499V8.66606C66.9899 8.94505 66.7602 9.1748 66.4812 9.1748H66.1694H63.1662C62.8544 9.1748 62.6082 9.42097 62.6082 9.73278V11.538H66.1694H66.4812C66.7602 11.538 66.9899 11.7677 66.9899 12.0467V13.0478C66.9899 13.3268 66.7602 13.5565 66.4812 13.5565H66.1694H62.6082V13.6878V15.1812V17.4459C62.6082 17.7249 62.3785 17.9547 62.0995 17.9547H61.082C60.803 17.9547 60.5732 17.7249 60.5732 17.4459V15.1812V13.7042V9.20762C60.5732 8.07527 61.5087 7.15625 62.641 7.15625Z" fill="#242056"/>
<path fill-rule="evenodd" clip-rule="evenodd" d="M83.7783 8.05656L81.1197 17.378C81.0212 17.7062 81.2346 17.9688 81.5956 17.9688H82.3505C82.6952 17.9688 83.0562 17.7062 83.1547 17.378L83.8768 14.8179H86.9949L87.7169 17.378C87.8154 17.7062 88.1764 17.9688 88.5211 17.9688H89.276C89.6206 17.9688 89.834 17.7062 89.7519 17.378L87.0933 8.05656C86.7487 6.79291 84.1229 6.82574 83.7783 8.05656ZM86.4205 12.7993H84.4512L85.4358 9.35303L86.4205 12.7993Z" fill="#242056"/>
<path fill-rule="evenodd" clip-rule="evenodd" d="M68.4341 7.66499V17.4624C68.4341 17.7413 68.6638 17.9711 68.9428 17.9711H69.9439C70.2229 17.9711 70.4526 17.7413 70.4526 17.4624V7.66499C70.4526 7.386 70.2229 7.15625 69.9439 7.15625H68.9428C68.6638 7.15625 68.4341 7.386 68.4341 7.66499Z" fill="#242056"/>
<path fill-rule="evenodd" clip-rule="evenodd" d="M106.295 7.15625H104.26C104.243 7.15625 104.244 7.15625 104.227 7.15625H104.129C103.8 7.15625 103.472 7.18907 103.144 7.27113C102.799 7.35318 102.455 7.48447 102.143 7.66499C101.798 7.86192 101.503 8.14091 101.257 8.45272C100.961 8.81376 100.764 9.27327 100.633 9.73278C100.453 10.3072 100.403 10.9472 100.403 11.5544V13.5894C100.403 14.1966 100.469 14.8202 100.633 15.3946C100.764 15.8541 100.978 16.2972 101.257 16.6582C101.503 16.9864 101.798 17.249 102.143 17.4624C102.455 17.6429 102.799 17.7906 103.144 17.8726C103.472 17.9547 103.8 17.9875 104.129 17.9875H104.227C104.244 17.9875 104.243 17.9875 104.26 17.9875H106.295C106.574 17.9875 106.804 17.7578 106.804 17.4788V16.4777C106.804 16.1987 106.574 15.969 106.295 15.969H104.293H104.26C104.243 15.969 104.244 15.969 104.227 15.969H104.129C103.817 15.969 103.538 15.9525 103.259 15.7884C102.98 15.6243 102.799 15.3617 102.684 15.0499C102.504 14.6068 102.455 14.0653 102.455 13.5894V11.5544C102.455 11.1605 102.488 10.7503 102.586 10.3728C102.816 9.51943 103.324 9.19121 104.129 9.19121H104.227H104.243H104.276H106.278C106.557 9.19121 106.787 8.96146 106.787 8.68247V7.6814C106.804 7.386 106.574 7.15625 106.295 7.15625Z" fill="#242056"/>
</svg>
