<svg width="76" height="30" viewBox="0 0 76 30" fill="none" xmlns="http://www.w3.org/2000/svg">
<path fill-rule="evenodd" clip-rule="evenodd" d="M14.6228 0.753906C22.6995 0.753906 29.2455 7.29992 29.2455 15.3767C29.2455 23.4534 22.6995 29.9994 14.6228 29.9994C6.54602 29.9994 0 23.4534 0 15.3767C0 7.29992 6.54602 0.753906 14.6228 0.753906Z" fill="#F26F21"/>
<path fill-rule="evenodd" clip-rule="evenodd" d="M14.6224 28.5382L17.2275 24.9628H15.4531H14.948H14.6224H14.4142H13.7917H12.0173L14.6224 28.5382ZM14.6224 24.9628L14.9901 24.2473L16.0468 22.1938H15.1341H15.0677H14.6246H14.2281H14.1151H13.2024L14.6224 24.9628ZM14.6224 11.3413H14.968H15.9848L15.1629 9.6622L14.6224 8.55901L13.26 11.3413H14.3521H14.6224ZM14.6224 8.55901H14.8439H14.9791H16.4212L14.6224 5.08774L12.8236 8.55901H14.268H14.3433H14.6224ZM14.6224 5.08774H15.225H15.6968H16.8243L14.6224 2.2168L12.4205 5.08774H13.7452H14.0199H14.6224ZM20.4285 24.9628H17.2275L19.2456 22.1938L20.4285 24.9628ZM27.3356 18.7934H21.7244L24.458 15.0408L27.3356 18.7934ZM21.7244 18.7934L23.4856 22.1938H19.2478L21.7244 18.7934ZM21.6203 11.3413H27.154L24.458 15.0408L21.6203 11.3413ZM21.6203 11.3413L19.4871 8.55901H23.0514L21.6203 11.3413ZM16.4212 8.55901H19.4871L17.8699 11.3413L16.4212 8.55901ZM19.4871 8.55901L16.8243 5.08774H21.4963L19.4871 8.55901ZM14.6224 22.1916L16.1797 18.7934H15.1629H15.0854H14.6246H14.1904H14.0863H13.0695L14.2702 21.4162L14.6224 22.1916ZM14.6224 16.9614L14.8129 16.6313L16.0003 14.5778H14.8196H14.6224H14.4053H13.2423L14.6224 16.9614ZM14.6224 13.1135H14.7575H14.9192H15.3778L14.6224 11.3413L13.867 13.1135H14.3809H14.4873H14.6224ZM16.0468 22.1938L17.7968 18.7934L19.2478 22.1938H16.0468ZM17.7924 18.7934H16.1797L17.0171 16.9614L17.7946 18.7934H17.7924ZM16.5962 15.9712L17.0193 16.9614H15.905L16.5962 15.9712ZM17.8478 15.1515L18.7339 16.9614H17.0193L17.8478 15.1515ZM18.7848 13.1135L17.8478 15.1515L17.5687 14.5778L16.8509 13.1135H18.7848ZM19.7507 14.9832L21.7244 18.7934H17.7991H17.7968L18.7339 16.9614L19.7507 14.9832ZM21.6203 11.3413L19.7507 14.9832L17.8699 11.3413H21.6203ZM16.8509 13.1135L15.9848 11.3413H17.8699L16.8509 13.1135ZM16.8509 13.1135L16.0025 14.5778L15.3778 13.1135H16.8509ZM16.5962 15.9712L16.0025 14.5778H17.5687L16.5962 15.9712ZM8.81849 24.9628H12.0173L9.99921 22.1938L8.81849 24.9628ZM1.90918 18.7934H7.52037L4.78677 15.0408L1.90918 18.7934ZM7.52037 18.7934L5.75926 22.1938H9.997L7.52037 18.7934ZM7.62448 11.3413H2.09083L4.78677 15.0408L7.62448 11.3413ZM7.62448 11.3413L9.75775 8.55901H6.19566L7.62448 11.3413ZM12.8236 8.55901H9.75997L11.3771 11.3413L12.8236 8.55901ZM9.75997 8.55901L12.4227 5.08774H7.75075L9.75997 8.55901ZM14.6224 18.7934L14.3433 18.3946L13.342 16.9614H14.1439H14.2525H14.6202H14.9879H15.8984L14.6224 18.7934ZM13.2002 22.1938L11.4502 18.7934L9.99921 22.1938H13.2002ZM11.4524 18.7934H13.0651L12.2277 16.9614L11.4502 18.7934H11.4524ZM12.6508 15.9712L12.2277 16.9614H13.342L12.6508 15.9712ZM11.397 15.1515L10.5109 16.9614H12.2255L11.397 15.1515ZM10.4622 13.1135L11.3992 15.1515L11.6784 14.5778L12.3961 13.1135H10.4622ZM9.49636 14.9832L7.52258 18.7934H11.448H11.4502L10.5131 16.9614L9.49636 14.9832ZM7.62448 11.3413L9.49414 14.9832L11.3749 11.3413H7.62448ZM12.3939 13.1135L13.26 11.3413H11.3749L12.3939 13.1135ZM12.3939 13.1135L13.2423 14.5778L13.867 13.1135H12.3939ZM12.6508 15.9712L13.2445 14.5778H11.6784L12.6508 15.9712Z" fill="white"/>
<path fill-rule="evenodd" clip-rule="evenodd" d="M69.9615 5.72461H66.7627C65.788 5.72461 64.9883 6.52209 64.9883 7.4968V25.0259C68.0763 25.0259 71.1644 25.0259 74.2524 25.0259C75.2138 25.0259 76.0002 24.2395 76.0002 23.2803V20.055H69.9615V5.72461ZM37.8694 5.72461H34.7238C33.7203 5.72461 32.8984 6.54646 32.8984 7.54996V25.0259H36.0441C37.0476 25.0259 37.8694 24.2041 37.8694 23.2006V5.72461ZM51.5773 5.72461H54.2777H54.7761H62.2348V8.94999C62.2348 9.9114 61.4484 10.6956 60.487 10.6956H54.7761V13.1722H60.9832V16.3976C60.9832 17.359 60.1968 18.1432 59.2353 18.1432H54.7761V23.2538C54.7761 24.2285 53.9786 25.0259 53.0017 25.0259H49.8029V7.49901C49.8029 6.52209 50.6004 5.72461 51.5773 5.72461ZM46.3228 5.72461H43.1771C42.1736 5.72461 41.3518 6.54646 41.3518 7.54996V25.0259H44.4974C45.5009 25.0259 46.3228 24.2041 46.3228 23.2006V5.72461Z" fill="#242056"/>
</svg>
