<svg width="212" height="40" viewBox="0 0 212 40" fill="none" xmlns="http://www.w3.org/2000/svg">
<g clip-path="url(#clip0_66_1100)">
<path fill-rule="evenodd" clip-rule="evenodd" d="M20 0C31.0468 0 40 8.95319 40 20C40 31.0468 31.0468 40 20 40C8.95319 40 0 31.0468 0 20C0 8.95319 8.95319 0 20 0Z" fill="#F26F21"/>
<path fill-rule="evenodd" clip-rule="evenodd" d="M20.0001 38.0006L23.5632 33.1104H21.1363H20.4455H20.0001H19.7153H18.8639H16.437L20.0001 38.0006ZM20.0001 33.1104L20.503 32.1318L21.9483 29.3231H20.7H20.6091H20.0031H19.4608H19.3063H18.058L20.0001 33.1104ZM20.0001 14.4799H20.4727H21.8634L20.7394 12.1833L20.0001 10.6744L18.1367 14.4799H19.6305H20.0001ZM20.0001 10.6744H20.3031H20.4879H22.4603L20.0001 5.92668L17.5399 10.6744H19.5153H19.6183H20.0001ZM20.0001 5.92668H20.8242H21.4696H23.0118L20.0001 2L16.9884 5.92668H18.8003H19.176H20.0001ZM27.9413 33.1104H23.5632L26.3234 29.3231L27.9413 33.1104ZM37.3884 24.6723H29.7138L33.4526 19.5398L37.3884 24.6723ZM29.7138 24.6723L32.1225 29.3231H26.3264L29.7138 24.6723ZM29.5714 14.4799H37.1399L33.4526 19.5398L29.5714 14.4799ZM29.5714 14.4799L26.6536 10.6744H31.5287L29.5714 14.4799ZM22.4603 10.6744H26.6536L24.4418 14.4799L22.4603 10.6744ZM26.6536 10.6744L23.0118 5.92668H29.4017L26.6536 10.6744ZM20.0001 29.3201L22.1301 24.6723H20.7394H20.6333H20.0031H19.4093H19.2669H17.8762L19.5183 28.2597L20.0001 29.3201ZM20.0001 22.1666L20.2607 21.7152L21.8847 18.9065H20.2698H20.0001H19.7032H18.1125L20.0001 22.1666ZM20.0001 16.9038H20.1849H20.4061H21.0333L20.0001 14.4799L18.9669 16.9038H19.6698H19.8153H20.0001ZM21.9483 29.3231L24.3419 24.6723L26.3264 29.3231H21.9483ZM24.3358 24.6723H22.1301L23.2754 22.1666L24.3388 24.6723H24.3358ZM22.6997 20.8123L23.2784 22.1666H21.7544L22.6997 20.8123ZM24.4115 19.6913L25.6235 22.1666H23.2784L24.4115 19.6913ZM25.6932 16.9038L24.4115 19.6913L24.0298 18.9065L23.0481 16.9038H25.6932ZM27.0142 19.461L29.7138 24.6723H24.3449H24.3419L25.6235 22.1666L27.0142 19.461ZM29.5714 14.4799L27.0142 19.461L24.4418 14.4799H29.5714ZM23.0481 16.9038L21.8634 14.4799H24.4418L23.0481 16.9038ZM23.0481 16.9038L21.8877 18.9065L21.0333 16.9038H23.0481ZM22.6997 20.8123L21.8877 18.9065H24.0298L22.6997 20.8123ZM12.0619 33.1104H16.437L13.6768 29.3231L12.0619 33.1104ZM2.61182 24.6723H10.2864L6.54758 19.5398L2.61182 24.6723ZM10.2864 24.6723L7.87769 29.3231H13.6738L10.2864 24.6723ZM10.4288 14.4799H2.86026L6.54758 19.5398L10.4288 14.4799ZM10.4288 14.4799L13.3466 10.6744H8.47457L10.4288 14.4799ZM17.5399 10.6744H13.3496L15.5614 14.4799L17.5399 10.6744ZM13.3496 10.6744L16.9915 5.92668H10.6015L13.3496 10.6744ZM20.0001 24.6723L19.6183 24.1269L18.2488 22.1666H19.3456H19.4941H19.9971H20.5H21.7453L20.0001 24.6723ZM18.0549 29.3231L15.6614 24.6723L13.6768 29.3231H18.0549ZM15.6644 24.6723H17.8701L16.7248 22.1666L15.6614 24.6723H15.6644ZM17.3035 20.8123L16.7248 22.1666H18.2488L17.3035 20.8123ZM15.5886 19.6913L14.3767 22.1666H16.7218L15.5886 19.6913ZM14.31 16.9038L15.5917 19.6913L15.9734 18.9065L16.9551 16.9038H14.31ZM12.989 19.461L10.2894 24.6723H15.6583H15.6614L14.3797 22.1666L12.989 19.461ZM10.4288 14.4799L12.986 19.461L15.5583 14.4799H10.4288ZM16.9521 16.9038L18.1367 14.4799H15.5583L16.9521 16.9038ZM16.9521 16.9038L18.1125 18.9065L18.9669 16.9038H16.9521ZM17.3035 20.8123L18.1155 18.9065H15.9734L17.3035 20.8123Z" fill="white"/>
<path fill-rule="evenodd" clip-rule="evenodd" d="M95.6884 6.79883H91.3133C89.9802 6.79883 88.8864 7.88957 88.8864 9.2227V33.1979C93.11 33.1979 97.3336 33.1979 101.557 33.1979C102.872 33.1979 103.948 32.1223 103.948 30.8103V26.3989H95.6884V6.79883ZM51.7951 6.79883H47.4927C46.1202 6.79883 44.9961 7.9229 44.9961 9.29542V33.1979H49.2985C50.671 33.1979 51.7951 32.0738 51.7951 30.7013V6.79883ZM70.5437 6.79883H74.2371H74.9188H85.1203V11.2103C85.1203 12.5252 84.0447 13.5978 82.7298 13.5978H74.9188V16.9852H83.4085V21.3966C83.4085 22.7116 82.3329 23.7841 81.0179 23.7841H74.9188V30.774C74.9188 32.1071 73.8281 33.1979 72.4919 33.1979H68.1168V9.22573C68.1168 7.88957 69.2076 6.79883 70.5437 6.79883ZM63.3569 6.79883H59.0546C57.6821 6.79883 56.558 7.9229 56.558 9.29542V33.1979H60.8604C62.2329 33.1979 63.3569 32.0738 63.3569 30.7013V6.79883Z" fill="#242056"/>
<path d="M179.606 33.2007C179.294 33.2007 179.019 33.1401 178.782 33.0219H178.779C178.504 32.8856 178.294 32.6795 178.152 32.4038L171.732 20.3087V31.9857V32.2554C171.732 32.7735 171.308 33.2007 170.786 33.2007H168.929C168.411 33.2007 167.984 32.7765 167.984 32.2554V14.1611C167.984 13.643 168.408 13.2158 168.929 13.2158H170.893C171.383 13.2158 171.75 13.2916 171.989 13.4461C172.111 13.5218 172.223 13.6218 172.326 13.743C172.414 13.846 172.492 13.9642 172.565 14.0975L172.571 14.1096L178.916 26.0805V14.4308V14.1611C178.916 13.643 179.34 13.2158 179.861 13.2158C180.479 13.2158 181.1 13.2158 181.718 13.2158C182.236 13.2158 182.663 13.64 182.663 14.1611V32.2554C182.663 32.7735 182.239 33.2007 181.718 33.2007C181.015 33.2007 180.309 33.2007 179.606 33.2007Z" fill="#242056"/>
<path d="M144.39 33.2007C144.078 33.2007 143.802 33.1401 143.566 33.0219H143.563C143.287 32.8856 143.078 32.6795 142.936 32.4038L136.515 20.3057V31.9827V32.2523C136.515 32.7704 136.091 33.1976 135.57 33.1976H133.713C133.195 33.1976 132.768 32.7735 132.768 32.2523V14.1611C132.768 13.643 133.192 13.2158 133.713 13.2158H135.676C136.167 13.2158 136.534 13.2916 136.773 13.4461C136.894 13.5218 137.006 13.6218 137.109 13.743C137.197 13.846 137.276 13.9642 137.349 14.0975L137.355 14.1096L143.699 26.0805V14.4308V14.1611C143.699 13.643 144.123 13.2158 144.645 13.2158C145.263 13.2158 145.884 13.2158 146.502 13.2158C147.02 13.2158 147.447 13.64 147.447 14.1611V32.2554C147.447 32.7735 147.023 33.2007 146.502 33.2007C145.799 33.2007 145.093 33.2007 144.39 33.2007Z" fill="#242056"/>
<path fill-rule="evenodd" clip-rule="evenodd" d="M203.639 13.2158H203.79H209.641H210.735C211.253 13.2158 211.68 13.64 211.68 14.1611V16.0184C211.68 16.5365 211.256 16.9637 210.735 16.9637H210.165H204.605C204.042 16.9637 203.578 17.4273 203.578 17.9909V21.3358H210.165H210.735C211.253 21.3358 211.68 21.76 211.68 22.2811V24.1384C211.68 24.6565 211.256 25.0837 210.735 25.0837H210.165H203.578V28.4287C203.578 28.9922 204.039 29.4558 204.605 29.4558H210.165H210.735C211.253 29.4558 211.68 29.88 211.68 30.4011V32.2584C211.68 32.7765 211.256 33.2037 210.735 33.2037H209.641H203.79H203.639C201.545 33.2037 199.833 31.4918 199.833 29.3982V17.0213C199.833 14.9307 201.545 13.2158 203.639 13.2158Z" fill="#242056"/>
<path fill-rule="evenodd" clip-rule="evenodd" d="M115.655 13.2158H115.807H121.657H122.751C123.269 13.2158 123.696 13.64 123.696 14.1611V16.0184C123.696 16.5365 123.272 16.9637 122.751 16.9637H122.181H116.622C116.058 16.9637 115.595 17.4273 115.595 17.9909V21.3358H122.181H122.751C123.269 21.3358 123.696 21.76 123.696 22.2811V24.1384C123.696 24.6565 123.272 25.0837 122.751 25.0837H122.181H115.595V25.314V28.0621V32.2584C115.595 32.7765 115.17 33.2037 114.649 33.2037H112.792C112.274 33.2037 111.847 32.7795 111.847 32.2584V28.059V25.311V17.0213C111.85 14.9307 113.562 13.2158 115.655 13.2158Z" fill="#242056"/>
<path fill-rule="evenodd" clip-rule="evenodd" d="M154.682 14.8981L149.777 32.1137C149.607 32.7136 149.995 33.2014 150.644 33.2014H152.037C152.686 33.2014 153.355 32.7106 153.525 32.1137L154.867 27.3993H160.636L161.978 32.1137C162.148 32.7136 162.818 33.2014 163.466 33.2014H164.86C165.508 33.2014 165.896 32.7106 165.726 32.1137L160.821 14.8981C160.157 12.5682 155.331 12.6197 154.682 14.8981ZM159.57 23.6513H155.934L157.752 17.2735L159.57 23.6513Z" fill="#242056"/>
<path fill-rule="evenodd" clip-rule="evenodd" d="M126.338 14.1611V32.2554C126.338 32.7735 126.763 33.2007 127.284 33.2007H129.141C129.659 33.2007 130.086 32.7765 130.086 32.2554V14.1611C130.086 13.643 129.662 13.2158 129.141 13.2158H127.284C126.763 13.2158 126.338 13.643 126.338 14.1611Z" fill="#242056"/>
<path fill-rule="evenodd" clip-rule="evenodd" d="M196.246 13.2162H192.492C192.474 13.2162 192.453 13.2162 192.434 13.2192L192.247 13.2162C191.635 13.2101 191.023 13.2828 190.423 13.4192C189.774 13.5646 189.153 13.8161 188.571 14.1554C187.941 14.522 187.396 15.025 186.935 15.6188C186.402 16.3006 186.038 17.1216 185.784 17.967C185.46 19.0395 185.348 20.2091 185.348 21.3331V25.081C185.348 26.196 185.46 27.3504 185.784 28.4108C186.041 29.2531 186.405 30.0712 186.935 30.7499C187.399 31.3437 187.941 31.8497 188.571 32.2254C189.153 32.5738 189.774 32.8314 190.423 32.9829C191.023 33.1222 191.635 33.2041 192.25 33.198L192.437 33.195C192.456 33.195 192.477 33.198 192.498 33.198H196.252C196.77 33.198 197.197 32.7738 197.197 32.2527V30.3954C197.197 29.8773 196.773 29.4501 196.252 29.4501H192.568H192.495C192.48 29.4501 192.465 29.4501 192.447 29.4501L192.277 29.4531C191.713 29.4592 191.171 29.4228 190.674 29.1259C190.174 28.8259 189.838 28.323 189.605 27.7655C189.271 26.9595 189.186 25.9536 189.186 25.081V21.3331C189.186 20.6151 189.238 19.8394 189.429 19.1486C189.859 17.5761 190.786 16.955 192.277 16.9641H192.459H192.489H192.562H196.246C196.764 16.9641 197.191 16.5399 197.191 16.0188V14.1615C197.191 13.6434 196.767 13.2162 196.246 13.2162Z" fill="#242056"/>
</g>
<defs>
<clipPath id="clip0_66_1100">
<rect width="211.68" height="40" fill="white"/>
</clipPath>
</defs>
</svg>
