<svg width="114" height="22" viewBox="0 0 114 22" fill="none" xmlns="http://www.w3.org/2000/svg">
<path fill-rule="evenodd" clip-rule="evenodd" d="M10.8313 0.324219C16.8213 0.324219 21.6625 5.18187 21.6625 11.1555C21.6625 17.1455 16.8049 21.9867 10.8313 21.9867C4.84124 21.9867 0 17.1291 0 11.1555C0 5.16546 4.84124 0.324219 10.8313 0.324219Z" fill="#F26F21"/>
<path fill-rule="evenodd" clip-rule="evenodd" d="M10.8315 20.9033L12.768 18.2611H11.4551H11.0777H10.8315H10.6838H10.2079H8.89503L10.8315 20.9033ZM10.8315 18.2447L11.1105 17.7196L11.8982 16.1933H11.2254H11.1762H10.8479H10.5361H10.4541H9.78123L10.8315 18.2447ZM10.8315 8.16837H11.0941H11.849L11.2418 6.92113L10.8479 6.10058L9.84687 8.16837H10.651H10.8315ZM10.8315 6.10058H10.9956H11.0941H12.1608L10.8315 3.52405L9.50224 6.10058H10.569H10.6182H10.8315ZM10.8315 3.52405H11.2746H11.6193H12.4562L10.8315 1.39062L9.20684 3.52405H10.1915H10.3884H10.8315ZM15.1312 18.2447H12.768L14.2614 16.1933L15.1312 18.2447ZM20.2514 13.6825H16.0995L18.118 10.909L20.2514 13.6825ZM16.083 13.6825L17.3959 16.1933H14.2614L16.083 13.6825ZM16.0174 8.16837H20.1202L18.118 10.909L16.0174 8.16837ZM16.0174 8.16837L14.4419 6.10058H17.0841L16.0174 8.16837ZM12.1608 6.10058H14.4255L13.2275 8.16837L12.1608 6.10058ZM14.4255 6.10058L12.4562 3.52405H15.9189L14.4255 6.10058ZM10.8315 16.1933L11.9803 13.6825H11.2254H11.1598H10.8151H10.4869H10.4048H9.64994L10.5361 15.619L10.8315 16.1933ZM10.8315 12.3203L10.9792 12.0742L11.8654 10.548H10.9956H10.8479H10.6838H9.81405L10.8315 12.3203ZM10.8315 9.48124H10.93H11.0449H11.3895L10.8315 8.16837L10.2736 9.48124H10.651H10.7331H10.8315ZM11.8818 16.1933L13.1783 13.6825L14.2614 16.1933H11.8818ZM13.1783 13.6825H11.9803L12.6039 12.3203L13.1783 13.6825ZM12.2921 11.5819L12.6039 12.3203H11.7834L12.2921 11.5819ZM13.2111 10.9911L13.8676 12.3368H12.6039L13.2111 10.9911ZM13.9168 9.48124L13.2275 10.9911L13.0142 10.5644L12.489 9.48124H13.9168ZM14.6225 10.8598L16.083 13.6825H13.1783L13.8676 12.3203L14.6225 10.8598ZM16.0174 8.16837L14.6389 10.8598L13.2439 8.16837H16.0174ZM12.4726 9.48124L11.8326 8.16837H13.2275L12.4726 9.48124ZM12.4726 9.48124L11.849 10.5644L11.3895 9.48124H12.4726ZM12.2921 11.5819L11.849 10.548H13.0142L12.2921 11.5819ZM6.53185 18.2447H8.89503L7.40163 16.1933L6.53185 18.2447ZM1.41162 13.6825H5.5636L3.54505 10.909L1.41162 13.6825ZM5.5636 13.6825L4.25072 16.1933H7.38522L5.5636 13.6825ZM5.64566 8.16837H1.54291L3.54505 10.909L5.64566 8.16837ZM5.64566 8.16837L7.22111 6.10058H4.57894L5.64566 8.16837ZM9.50224 6.10058H7.22111L8.41911 8.16837L9.50224 6.10058ZM7.22111 6.10058L9.19043 3.52405H5.74412L7.22111 6.10058ZM10.8315 13.6825L10.6182 13.3871L9.87969 12.3203H10.4705H10.5525H10.8315H11.1105H11.7834L10.8315 13.6825ZM9.78123 16.1933L8.48476 13.6825L7.40163 16.1933H9.78123ZM8.48476 13.6825H9.68276L9.05914 12.3203L8.48476 13.6825ZM9.37095 11.5819L9.05914 12.3203H9.87969L9.37095 11.5819ZM8.43553 10.9911L7.77909 12.3368H9.05914L8.43553 10.9911ZM7.74626 9.48124L8.43553 10.9911L8.64887 10.5644L9.17402 9.48124H7.74626ZM7.02418 10.8598L5.5636 13.6825H8.46835L7.77909 12.3203L7.02418 10.8598ZM5.64566 8.16837L7.02418 10.8598L8.41911 8.16837H5.64566ZM9.17402 9.48124L9.81405 8.16837H8.41911L9.17402 9.48124ZM9.17402 9.48124L9.79764 10.5644L10.2571 9.48124H9.17402ZM9.37095 11.5819L9.81405 10.548H8.64887L9.37095 11.5819Z" fill="white"/>
<path fill-rule="evenodd" clip-rule="evenodd" d="M51.8257 4H49.4625C48.7404 4 48.1497 4.5908 48.1497 5.31288V18.294C50.4308 18.294 52.7283 18.294 55.0094 18.294C55.7151 18.294 56.3059 17.7196 56.3059 16.9975V14.6015H51.8257V4ZM28.0462 4H25.7158C24.9773 4 24.3701 4.60721 24.3701 5.3457V18.294H26.7005C27.439 18.294 28.0462 17.6868 28.0462 16.9483V4ZM38.2046 4H40.2067H40.5678H46.0983V6.396C46.0983 7.10168 45.5075 7.69247 44.8018 7.69247H40.5678V9.5305H45.1628V11.9265C45.1628 12.6322 44.5721 13.223 43.8664 13.223H40.5678V16.9811C40.5678 17.7032 39.977 18.294 39.2549 18.294H36.8917V5.31288C36.8917 4.5908 37.4825 4 38.2046 4ZM34.3152 4H31.9848C31.2463 4 30.6391 4.60721 30.6391 5.3457V18.294H32.9695C33.708 18.294 34.3152 17.6868 34.3152 16.9483V4Z" fill="#242056"/>
<path fill-rule="evenodd" clip-rule="evenodd" d="M83.8769 8.38273L81.2183 17.7042C81.1199 18.0324 81.3332 18.295 81.6943 18.295H82.4492C82.7938 18.295 83.1548 18.0324 83.2533 17.7042L83.9754 15.1605H87.0935L87.8156 17.7042C87.914 18.0324 88.2751 18.295 88.6197 18.295H89.3746C89.7192 18.295 89.9326 18.0324 89.8505 17.7042L87.1919 8.38273C86.8473 7.11909 84.2216 7.15191 83.8769 8.38273ZM86.5191 13.1255H84.5498L85.5344 9.6792L86.5191 13.1255Z" fill="#242056"/>
<path fill-rule="evenodd" clip-rule="evenodd" d="M75.7207 7.47852H75.8028H78.9701H79.5609C79.8399 7.47852 80.0696 7.70827 80.0696 7.98726V8.98833C80.0696 9.26731 79.8399 9.49707 79.5609 9.49707H79.2491H76.2459C75.9341 9.49707 75.6879 9.74323 75.6879 10.055V11.8603H79.2327H79.5445C79.8235 11.8603 80.0532 12.09 80.0532 12.369V13.3701C80.0532 13.649 79.8235 13.8788 79.5445 13.8788H79.2327H75.6879V15.684C75.6879 15.9958 75.9341 16.242 76.2459 16.242H79.2491H79.5609C79.8399 16.242 80.0696 16.4717 80.0696 16.7507V17.7518C80.0696 18.0308 79.8399 18.2605 79.5609 18.2605H78.9701H75.8192H75.7371C74.6048 18.2605 73.6858 17.3415 73.6858 16.2092V9.52989C73.6693 8.41394 74.6048 7.47852 75.7207 7.47852Z" fill="#242056"/>
<path fill-rule="evenodd" clip-rule="evenodd" d="M104.276 7.47852C102.061 7.47852 99.8614 7.47852 97.6459 7.47852C97.367 7.47852 97.1372 7.70827 97.1372 7.98726V8.98833C97.1372 9.26731 97.367 9.49707 97.6459 9.49707H99.9435V17.7354C99.9435 18.0144 100.173 18.2441 100.452 18.2441H101.453C101.732 18.2441 101.962 18.0144 101.962 17.7354V9.49707H104.26C104.539 9.49707 104.768 9.26731 104.768 8.98833V7.98726C104.785 7.70827 104.555 7.47852 104.276 7.47852Z" fill="#242056"/>
<path fill-rule="evenodd" clip-rule="evenodd" d="M105.982 8.03804V17.7862C105.982 18.0652 106.212 18.2949 106.491 18.2949H107.492C107.771 18.2949 108.001 18.0652 108.001 17.7862V13.6998H111.743V17.7862C111.743 18.0652 111.972 18.2949 112.251 18.2949H113.252C113.531 18.2949 113.761 18.0652 113.761 17.7862V8.03804C113.761 7.75905 113.531 7.5293 113.252 7.5293H112.251C111.972 7.5293 111.743 7.75905 111.743 8.03804V11.6977H108.001V8.03804C108.001 7.75905 107.771 7.5293 107.492 7.5293H106.491C106.212 7.5293 105.982 7.75905 105.982 8.03804Z" fill="#242056"/>
<path fill-rule="evenodd" clip-rule="evenodd" d="M93.0829 18.2605H93.165H96.3159H96.9067C97.1857 18.2605 97.4154 18.0308 97.4154 17.7518V16.7507C97.4154 16.4717 97.1857 16.242 96.9067 16.242H96.5949H93.5917C93.2798 16.242 93.0337 15.9958 93.0337 15.684C93.0337 12.648 93.0337 13.1567 93.0337 10.252V7.98726C93.0337 7.70827 92.8039 7.47852 92.5249 7.47852H91.5239C91.2449 7.47852 91.0151 7.70827 91.0151 7.98726V10.252V11.729V16.1928C91.0315 17.3415 91.9506 18.2605 93.0829 18.2605Z" fill="#242056"/>
<path fill-rule="evenodd" clip-rule="evenodd" d="M60.5896 7.9873L62.165 17.8011C62.2143 18.0801 62.4769 18.2934 62.7558 18.2934H63.7569C64.0359 18.2934 64.2328 18.0637 64.1836 17.8011L62.6081 7.9873C62.5589 7.70831 62.2963 7.49497 62.0173 7.49497H61.0163C60.7373 7.47856 60.5404 7.70831 60.5896 7.9873Z" fill="#242056"/>
<path fill-rule="evenodd" clip-rule="evenodd" d="M72.5039 7.9873L70.9285 17.8011C70.8792 18.0801 70.6166 18.2934 70.3377 18.2934H69.3366C69.0576 18.2934 68.8607 18.0637 68.9099 17.8011L70.4854 7.9873C70.5346 7.70831 70.7972 7.49497 71.0761 7.49497H72.0772C72.3562 7.47856 72.5531 7.70831 72.5039 7.9873Z" fill="#242056"/>
<path fill-rule="evenodd" clip-rule="evenodd" d="M67.4331 7.97085L64.8566 17.8174C64.7909 18.08 64.4955 18.2934 64.2165 18.2934H63.2155C62.9365 18.2934 62.756 18.08 62.8216 17.8174L65.3981 7.95443C65.4638 7.69186 65.7592 7.47852 66.0382 7.47852H67.0392C67.3346 7.47852 67.5152 7.70827 67.4331 7.97085Z" fill="#242056"/>
<path fill-rule="evenodd" clip-rule="evenodd" d="M65.6444 7.97089L68.2209 17.8339C68.2865 18.0965 68.5819 18.3098 68.8609 18.3098H69.862C70.141 18.3098 70.3215 18.0965 70.2559 17.8339L67.6793 7.97089C67.6137 7.70831 67.3183 7.49497 67.0393 7.49497H66.0382C65.7592 7.47856 65.5787 7.70831 65.6444 7.97089Z" fill="#242056"/>
</svg>
