<svg width="34" height="32" viewBox="0 0 34 32" fill="none" xmlns="http://www.w3.org/2000/svg">
<path d="M3.25307 16.1553L11.4604 21.3639C11.3305 21.0203 11.2516 20.6495 11.2516 20.2577C11.2516 18.5532 12.614 17.1676 14.2873 17.1676H22.7873C23.6227 17.1676 24.6986 17.6212 25.2899 18.2232L27.0604 20.0253C27.1733 19.1131 27.9322 18.4036 28.8587 18.4036H32.1786C33.1828 18.4036 34 19.2355 34 20.2577V30.146C34 31.1681 33.1828 32 32.1786 32H28.8587C28.0682 32 27.4004 31.4821 27.149 30.764H14.8944C13.4021 30.764 11.3645 29.9667 10.2546 28.9519L0.712784 20.207C0.252571 19.741 0 19.1218 0 18.463C0 16.8277 1.60893 15.5435 3.25307 16.1553ZM28.2516 30.146C28.2516 30.4859 28.5236 30.764 28.8587 30.764H32.1786C32.5137 30.764 32.7857 30.4859 32.7857 30.146V20.2577C32.7857 19.9178 32.5137 19.6397 32.1786 19.6397H28.8587C28.5236 19.6397 28.2516 19.9178 28.2516 20.2577V30.146ZM1.547 19.3084L11.067 28.0323C11.9522 28.8432 13.7044 29.5279 14.8944 29.5279H27.0373V21.7496L24.4314 19.0971C24.0684 18.7275 23.3009 18.4036 22.7873 18.4036H14.2873C13.2831 18.4036 12.4659 19.2355 12.4659 20.2577C12.4659 21.2799 13.2831 22.1117 14.2873 22.1117H20.6429C20.978 22.1117 21.25 22.3886 21.25 22.7298C21.25 23.0709 20.978 23.3478 20.6429 23.3478H14.2873H13.6801C12.9018 23.3478 11.7749 23.019 11.1144 22.6L2.78193 17.2974C1.92707 17.0193 1.21429 17.667 1.21429 18.463C1.21429 18.7905 1.34057 19.0995 1.547 19.3084Z" fill="#F26F21"/>
<path d="M9.5 17C4.81225 17 1 13.1877 1 8.5C1 3.81225 4.81225 0 9.5 0C14.1878 0 18 3.81225 18 8.5C18 13.1877 14.1878 17 9.5 17ZM9.5 1.41667C5.59425 1.41667 2.41667 4.59425 2.41667 8.5C2.41667 12.4057 5.59425 15.5833 9.5 15.5833C13.4058 15.5833 16.5833 12.4057 16.5833 8.5C16.5833 4.59425 13.4058 1.41667 9.5 1.41667Z" fill="#F26F21"/>
<path d="M12.2993 4.76074H10.8013C11.0721 5.10352 11.2435 5.52246 11.3154 6.01758H12.5913L12.2993 7.02051H11.3345C11.2583 7.77376 10.96 8.34082 10.4395 8.72168C9.91895 9.10254 9.19531 9.29297 8.26855 9.29297L11.3979 12.9238V13H9.95703L6.59277 9.0835L6.58643 8.29004H8.16699C8.69596 8.28581 9.12549 8.17155 9.45557 7.94727C9.78564 7.71875 9.99512 7.40983 10.084 7.02051H6.40869L6.70068 6.01758H10.0713C9.86816 5.21354 9.24609 4.7946 8.20508 4.76074H6.42139L6.71973 3.75781H12.5913L12.2993 4.76074Z" fill="#F26F21"/>
</svg>
