<svg width="14" height="15" viewBox="0 0 14 15" fill="none" xmlns="http://www.w3.org/2000/svg">
<path d="M2.77585 9.97099C4.13205 11.7395 5.76461 13.132 7.62796 14.1173C8.33739 14.484 9.28616 14.9192 10.3432 14.9938C10.4087 14.9969 10.4714 15 10.5369 15C11.2464 15 11.8162 14.7327 12.2806 14.1826C12.2835 14.1794 12.2892 14.1732 12.292 14.167C12.4573 13.9494 12.6453 13.7536 12.8419 13.5454C12.9758 13.4055 13.1126 13.2594 13.2436 13.1102C13.8505 12.4202 13.8505 11.5437 13.2379 10.8755L11.5256 9.00746C11.235 8.67799 10.8874 8.50394 10.5227 8.50394C10.158 8.50394 9.80756 8.67799 9.50839 9.00435L8.4884 10.1171C8.39438 10.058 8.29751 10.0052 8.20633 9.95545C8.09237 9.89329 7.98695 9.83423 7.89293 9.76896C6.9641 9.12557 6.12076 8.28637 5.31445 7.20783C4.90702 6.64525 4.6335 6.17281 4.44261 5.69105C4.71043 5.42685 4.96115 5.15023 5.20333 4.87982C5.2888 4.78346 5.37713 4.68711 5.46545 4.59076C5.77316 4.25508 5.93841 3.86656 5.93841 3.47182C5.93841 3.07708 5.77601 2.68856 5.46545 2.35288L4.6164 1.42665C4.51668 1.31786 4.42266 1.21218 4.32579 1.1034C4.13775 0.892043 3.94116 0.674472 3.74741 0.478657C3.45395 0.164733 3.1092 0 2.74451 0C2.38267 0 2.03507 0.164733 1.73021 0.481765L0.664632 1.64422C0.277148 2.06693 0.0577634 2.57978 0.012177 3.17344C-0.0419568 3.91629 0.0834058 4.70576 0.408209 5.65997C0.90681 7.13634 1.65899 8.50704 2.77585 9.97099ZM0.70737 3.23871C0.74156 2.82532 0.886866 2.48031 1.16038 2.18193L2.22027 1.02569C2.38552 0.851637 2.56786 0.7615 2.74451 0.7615C2.91831 0.7615 3.09496 0.851637 3.25736 1.03191C3.44825 1.22462 3.62775 1.42665 3.82149 1.64111C3.91836 1.7499 4.01808 1.85868 4.1178 1.97058L4.96685 2.89681C5.1435 3.08951 5.23467 3.28533 5.23467 3.47804C5.23467 3.67074 5.1435 3.86656 4.96685 4.05926C4.87853 4.15562 4.7902 4.25508 4.70188 4.35143C4.43691 4.6436 4.18903 4.92022 3.91551 5.18442C3.90981 5.19063 3.90697 5.19374 3.90127 5.19996C3.66479 5.45794 3.70183 5.70348 3.75881 5.88997C3.76166 5.8993 3.76451 5.90551 3.76736 5.91484C3.98674 6.48985 4.2916 7.03688 4.76741 7.6896C5.62215 8.83962 6.52249 9.73166 7.51399 10.4186C7.6365 10.5056 7.76756 10.574 7.89008 10.6424C8.00404 10.7045 8.10946 10.7636 8.20348 10.8288C8.21488 10.8351 8.22343 10.8413 8.23482 10.8475C8.32885 10.9003 8.42002 10.9252 8.51119 10.9252C8.73912 10.9252 8.88728 10.7667 8.93572 10.7138L10.0013 9.55139C10.1665 9.37111 10.346 9.27476 10.5227 9.27476C10.7392 9.27476 10.9159 9.42085 11.027 9.55139L12.745 11.4225C13.0869 11.7955 13.0841 12.1995 12.7365 12.5943C12.6168 12.7341 12.4915 12.8678 12.3575 13.0077C12.1581 13.219 11.9501 13.4366 11.7621 13.6821C11.4344 14.0676 11.0441 14.2478 10.5398 14.2478C10.4914 14.2478 10.4401 14.2447 10.3916 14.2416C9.45711 14.1763 8.58812 13.7785 7.93566 13.4397C6.16349 12.5041 4.60786 11.177 3.31719 9.49233C2.25446 8.09677 1.53932 6.79755 1.06636 5.4051C0.7729 4.55035 0.661783 3.86345 0.70737 3.23871Z" fill="#F56C28"/>
</svg>
