<svg width="22" height="24" viewBox="0 0 22 24" fill="none" xmlns="http://www.w3.org/2000/svg">
<path d="M20.793 13.2979L16.874 15.5159L13.359 12.0229L16.902 8.50194L20.793 10.7039C21.0226 10.8338 21.2137 11.0223 21.3466 11.2502C21.4795 11.478 21.5496 11.7371 21.5496 12.0009C21.5496 12.2647 21.4795 12.5238 21.3466 12.7517C21.2137 12.9796 21.0226 13.1681 20.793 13.2979ZM0.112001 0.923936C0.0377908 1.1041 -0.000264586 1.29709 1.38457e-06 1.49194V22.5089C1.38457e-06 22.7259 0.0450013 22.9279 0.124001 23.1089L11.279 12.0219L0.112001 0.923936ZM12.319 10.9889L15.577 7.75094L2.225 0.194936C1.93881 0.0304719 1.60549 -0.0325977 1.279 0.0159364L12.319 10.9889ZM12.319 13.0559L1.319 23.9889C1.617 24.0249 1.931 23.9729 2.225 23.8059L15.549 16.2659L12.319 13.0559Z" fill="white"/>
</svg>
