<svg width="33" height="35" viewBox="0 0 33 35" fill="none" xmlns="http://www.w3.org/2000/svg">
<path d="M26.979 3.03765L24.3235 4.55019L22.2924 0.984278C22.0121 0.492268 21.3883 0.31892 20.8996 0.597269L1.42617 11.6892C0.937492 11.9675 0.768384 12.5925 1.04863 13.0845L5.36598 20.6643C5.64622 21.1563 6.27007 21.3296 6.75875 21.0513L26.2322 9.95937C26.7209 9.68102 26.89 9.05602 26.6097 8.56401L25.3387 6.33256L27.109 5.3242L29.8933 10.2124L17.4642 17.2919C16.9756 17.5702 16.8064 18.1952 17.0867 18.6872L20.2246 24.1962L19.3394 24.7004C18.9349 24.9308 18.7395 25.4079 18.8639 25.8596L20.3548 31.2547C20.4311 31.4664 21.1511 33.3416 22.9547 34.0156C24.103 34.445 25.3641 34.2754 26.7034 33.5125C28.0426 32.7497 28.8319 31.7515 29.0482 30.5448C29.3884 28.6497 28.1428 27.0738 27.9476 26.8423L24.1196 22.866C23.7946 22.5286 23.2846 22.4533 22.88 22.6837L21.9949 23.1879L19.3646 18.5701L31.7937 11.4906C32.2824 11.2122 32.4515 10.5872 32.1712 10.0952L28.3717 3.42466C28.0915 2.93265 27.4677 2.7593 26.979 3.03765ZM24.3318 8.68118L6.62868 18.7647L3.32655 12.9674L21.0297 2.88382L24.3318 8.68118ZM23.2083 24.8573L26.4316 28.2022C26.4393 28.2116 27.2131 29.2017 27.0398 30.1703C26.935 30.7541 26.4799 31.2792 25.6881 31.7302C24.9004 32.1789 24.2203 32.3034 23.6661 32.0996C22.7529 31.7653 22.3015 30.6392 22.2969 30.6418L21.0421 26.0912L23.2083 24.8573Z" fill="#F56E28"/>
</svg>
