<svg width="37" height="36" viewBox="0 0 37 36" fill="none" xmlns="http://www.w3.org/2000/svg">
<g opacity="0.5">
<path d="M22.2578 18C22.2578 19.9028 20.7153 21.4453 18.8125 21.4453C16.9097 21.4453 15.3672 19.9028 15.3672 18C15.3672 16.0972 16.9097 14.5547 18.8125 14.5547C20.7153 14.5547 22.2578 16.0972 22.2578 18Z" fill="#FDFDFD"/>
<path d="M26.8695 11.9041C26.7039 11.4553 26.4397 11.0491 26.0963 10.7156C25.7629 10.3723 25.357 10.1081 24.9079 9.94247C24.5437 9.80103 23.9966 9.63266 22.9889 9.58679C21.8987 9.53708 21.5719 9.52637 18.8121 9.52637C16.0521 9.52637 15.7253 9.5368 14.6354 9.58652C13.6277 9.63266 13.0803 9.80103 12.7164 9.94247C12.2673 10.1081 11.8611 10.3723 11.5279 10.7156C11.1846 11.0491 10.9204 11.455 10.7545 11.9041C10.613 12.2683 10.4447 12.8157 10.3988 13.8234C10.3491 14.9132 10.3384 15.2401 10.3384 18.0001C10.3384 20.7599 10.3491 21.0867 10.3988 22.1768C10.4447 23.1846 10.613 23.7317 10.7545 24.0959C10.9204 24.545 11.1843 24.9509 11.5276 25.2843C11.8611 25.6277 12.267 25.8919 12.7161 26.0575C13.0803 26.1992 13.6277 26.3676 14.6354 26.4135C15.7253 26.4632 16.0518 26.4736 18.8119 26.4736C21.5722 26.4736 21.899 26.4632 22.9886 26.4135C23.9963 26.3676 24.5437 26.1992 24.9079 26.0575C25.8093 25.7098 26.5218 24.9973 26.8695 24.0959C27.011 23.7317 27.1793 23.1846 27.2255 22.1768C27.2752 21.0867 27.2856 20.7599 27.2856 18.0001C27.2856 15.2401 27.2752 14.9132 27.2255 13.8234C27.1796 12.8157 27.0112 12.2683 26.8695 11.9041ZM18.8121 23.3073C15.8807 23.3073 13.5044 20.9313 13.5044 17.9998C13.5044 15.0684 15.8807 12.6924 18.8121 12.6924C21.7433 12.6924 24.1196 15.0684 24.1196 17.9998C24.1196 20.9313 21.7433 23.3073 18.8121 23.3073ZM24.3295 13.7229C23.6445 13.7229 23.0891 13.1675 23.0891 12.4825C23.0891 11.7975 23.6445 11.2422 24.3295 11.2422C25.0145 11.2422 25.5698 11.7975 25.5698 12.4825C25.5695 13.1675 25.0145 13.7229 24.3295 13.7229Z" fill="#FDFDFD"/>
<path d="M18.8125 0C8.87289 0 0.8125 8.06039 0.8125 18C0.8125 27.9396 8.87289 36 18.8125 36C28.7521 36 36.8125 27.9396 36.8125 18C36.8125 8.06039 28.7521 0 18.8125 0ZM29.0861 22.2613C29.0361 23.3616 28.8611 24.1128 28.6057 24.7703C28.0688 26.1587 26.9712 27.2563 25.5828 27.7932C24.9256 28.0486 24.1741 28.2233 23.0741 28.2736C21.9719 28.3239 21.6198 28.3359 18.8128 28.3359C16.0055 28.3359 15.6537 28.3239 14.5512 28.2736C13.4512 28.2233 12.6997 28.0486 12.0424 27.7932C11.3525 27.5337 10.7279 27.1269 10.2116 26.6009C9.68588 26.0848 9.27911 25.46 9.01956 24.7703C8.76413 24.1131 8.58917 23.3616 8.53918 22.2616C8.48837 21.1591 8.47656 20.807 8.47656 18C8.47656 15.193 8.48837 14.8409 8.53891 13.7387C8.5889 12.6384 8.76358 11.8872 9.01901 11.2297C9.27856 10.54 9.68561 9.91516 10.2116 9.39908C10.7277 8.87311 11.3525 8.46634 12.0422 8.20679C12.6997 7.95135 13.4509 7.77667 14.5512 7.72641C15.6534 7.67615 16.0055 7.66406 18.8125 7.66406C21.6195 7.66406 21.9716 7.67615 23.0738 7.72668C24.1741 7.77667 24.9253 7.95135 25.5828 8.20651C26.2725 8.46606 26.8973 8.87311 27.4137 9.39908C27.9394 9.91544 28.3464 10.54 28.6057 11.2297C28.8614 11.8872 29.0361 12.6384 29.0864 13.7387C29.1366 14.8409 29.1484 15.193 29.1484 18C29.1484 20.807 29.1366 21.1591 29.0861 22.2613Z" fill="#FDFDFD"/>
</g>
</svg>
