<svg width="18" height="18" viewBox="0 0 18 18" fill="none" xmlns="http://www.w3.org/2000/svg">
<path d="M16.8695 2.90408C16.7039 2.45529 16.4397 2.04907 16.0963 1.71564C15.7629 1.37231 15.357 1.10809 14.9079 0.942474C14.5437 0.801025 13.9966 0.63266 12.9889 0.586792C11.8987 0.537079 11.5719 0.526367 8.81213 0.526367C6.05209 0.526367 5.72525 0.536804 4.63541 0.586517C3.62769 0.63266 3.08029 0.801025 2.71637 0.942474C2.2673 1.10809 1.86108 1.37231 1.52792 1.71564C1.1846 2.04907 0.92038 2.45502 0.754486 2.90408C0.613037 3.26828 0.444672 3.81567 0.398804 4.82339C0.349091 5.91324 0.338379 6.24008 0.338379 9.00012C0.338379 11.7599 0.349091 12.0867 0.398804 13.1768C0.444672 14.1846 0.613037 14.7317 0.754486 15.0959C0.92038 15.545 1.18433 15.9509 1.52765 16.2843C1.86108 16.6277 2.26703 16.8919 2.71609 17.0575C3.08029 17.1992 3.62769 17.3676 4.63541 17.4135C5.72525 17.4632 6.05182 17.4736 8.81186 17.4736C11.5722 17.4736 11.899 17.4632 12.9886 17.4135C13.9963 17.3676 14.5437 17.1992 14.9079 17.0575C15.8093 16.7098 16.5218 15.9973 16.8695 15.0959C17.011 14.7317 17.1793 14.1846 17.2255 13.1768C17.2752 12.0867 17.2856 11.7599 17.2856 9.00012C17.2856 6.24008 17.2752 5.91324 17.2255 4.82339C17.1796 3.81567 17.0112 3.26828 16.8695 2.90408V2.90408ZM8.81213 14.3073C5.88071 14.3073 3.50436 11.9313 3.50436 8.99985C3.50436 6.06842 5.88071 3.69235 8.81213 3.69235C11.7433 3.69235 14.1196 6.06842 14.1196 8.99985C14.1196 11.9313 11.7433 14.3073 8.81213 14.3073ZM14.3295 4.72287C13.6445 4.72287 13.0891 4.16751 13.0891 3.48251C13.0891 2.79752 13.6445 2.24216 14.3295 2.24216C15.0145 2.24216 15.5698 2.79752 15.5698 3.48251C15.5695 4.16751 15.0145 4.72287 14.3295 4.72287Z" fill="#FDFDFD"/>
</svg>
