<svg width="37" height="36" viewBox="0 0 37 36" fill="none" xmlns="http://www.w3.org/2000/svg">
<path opacity="0.5" fill-rule="evenodd" clip-rule="evenodd" d="M36.8048 17.7499C36.8048 27.55 28.749 35.4922 18.8087 35.4922C8.86829 35.4922 0.8125 27.5424 0.8125 17.7423C0.8125 7.94215 8.86829 0 18.8087 0C28.749 0 36.8125 7.94215 36.8048 17.7499ZM10.266 25.1662H13.7725V14.0947H10.266V25.1662ZM11.9034 12.7088H11.9266C13.2473 12.7088 14.066 11.8636 14.066 10.79C14.0429 9.70108 13.2473 8.87109 11.9498 8.87109C10.6599 8.87109 9.8103 9.69346 9.8103 10.79C9.8103 11.8636 10.6367 12.7088 11.9034 12.7088ZM23.8287 25.1662H27.7987V19.0137C27.7987 15.5871 25.8446 13.9957 23.3499 13.9957C21.3417 13.9957 20.0828 15.0769 19.851 15.8384V14.1023H15.912C15.966 15.0313 15.912 25.1738 15.912 25.1738H19.851V19.1812C19.851 19.1416 19.8508 19.102 19.8506 19.0626C19.849 18.7684 19.8475 18.4832 19.936 18.2751C20.2063 17.6126 20.7856 16.9197 21.836 16.9197C23.2108 16.9197 23.8287 17.94 23.8287 19.4401V25.1662Z" fill="white"/>
</svg>
