<svg width="40" height="40" viewBox="0 0 40 40" fill="none" xmlns="http://www.w3.org/2000/svg">
<path d="M35.9683 34.1942H33.3516C37.3432 30.4687 39.5607 25.3241 39.5607 19.7803C39.5607 8.87008 30.6906 0 19.7804 0C16.8533 0 14.0592 0.620906 11.4425 1.86272C11.0434 2.04012 10.866 2.52797 11.0434 2.92713C11.2208 3.32628 11.7086 3.50368 12.1078 3.32628C14.5027 2.21752 17.075 1.64096 19.7804 1.64096C29.8036 1.64096 37.9641 9.80144 37.9641 19.8246C37.9641 24.9693 35.8353 29.7591 32.1098 33.1741V30.3357C32.1098 29.8922 31.755 29.5374 31.3115 29.5374C30.868 29.5374 30.5132 29.8922 30.5132 30.3357V35.0368C30.5132 35.4803 30.868 35.8351 31.3115 35.8351H35.9683C36.4118 35.8351 36.7666 35.4803 36.7666 35.0368C36.7666 34.549 36.4118 34.1942 35.9683 34.1942Z" fill="#F56C28"/>
<path d="M27.0537 36.4553C24.7475 37.431 22.3082 37.9632 19.8246 37.9632C9.80144 37.9632 1.64096 29.8027 1.64096 19.7795C1.64096 14.901 3.59238 10.2886 7.00736 6.87358V9.49026C7.00736 9.93376 7.36217 10.2886 7.80567 10.2886C8.24917 10.2886 8.60398 9.93376 8.60398 9.49026V4.83346C8.60398 4.38996 8.24917 4.03516 7.80567 4.03516H3.14888C2.70537 4.03516 2.35057 4.38996 2.35057 4.83346C2.35057 5.27697 2.70537 5.63177 3.14888 5.63177H5.9873C2.17317 9.3572 0 14.4131 0 19.7795C0 30.6897 8.87008 39.5598 19.7803 39.5598C22.53 39.5598 25.191 39.0276 27.6746 37.9189C28.0738 37.7415 28.2956 37.2536 28.1182 36.8545C27.9408 36.4553 27.4529 36.2779 27.0537 36.4553Z" fill="#F56C28"/>
<path d="M30.8235 20.2689C31.5775 20.2689 32.2427 19.8698 32.6419 19.2489C32.908 18.761 32.9967 18.1844 32.8637 17.6522C32.7306 17.12 32.3758 16.6765 31.8879 16.3661L21.1108 10.024C20.4455 9.62482 19.6472 9.62482 18.982 10.024L15.6113 12.0197V10.6005C15.6113 10.157 15.2565 9.80222 14.813 9.80222H12.019C11.5755 9.80222 11.2207 10.157 11.2207 10.6005V14.6364L8.73703 16.1C8.24918 16.3661 7.89437 16.8539 7.76132 17.3861C7.62827 17.9183 7.71697 18.4949 7.98308 18.9828C8.24918 19.4706 8.73703 19.8254 9.26924 19.9585C9.80144 20.0915 10.378 20.0028 10.8659 19.7367L11.2207 19.515V28.2076C11.2207 28.6511 11.5755 29.0059 12.019 29.0059H17.6958C18.1393 29.0059 18.4941 28.6511 18.4941 28.2076V21.4664H21.5986V28.2076C21.5986 28.6511 21.9535 29.0059 22.397 29.0059H28.0738C28.5173 29.0059 28.8721 28.6511 28.8721 28.2076V19.4706L29.7148 19.9585C30.0696 20.1359 30.4244 20.2689 30.8235 20.2689ZM12.8173 11.4432H13.9704V12.9955L12.8173 13.7051V11.4432ZM10.0232 18.3618C9.93449 18.4062 9.80144 18.4506 9.66839 18.4062C9.53534 18.3618 9.44664 18.3175 9.40229 18.1844C9.26924 17.9627 9.35794 17.6966 9.57969 17.5635L19.869 11.4432C20.002 11.3545 20.1794 11.3545 20.3568 11.4432L31.134 17.7853C31.3557 17.9183 31.4444 18.1844 31.3114 18.4062C31.1783 18.628 30.9122 18.7167 30.6905 18.5836L20.4455 12.6406C20.3125 12.5519 20.1794 12.5076 20.0464 12.5076C19.9133 12.5076 19.7803 12.5519 19.6472 12.6406L10.0232 18.3618ZM27.2755 27.4093H23.2396V20.6237C23.2396 20.1802 22.8848 19.8254 22.4413 19.8254H17.6958C17.2523 19.8254 16.8975 20.1802 16.8975 20.6237V27.365H12.8616V18.5836L20.0907 14.2816L27.3199 18.5393L27.2755 27.4093Z" fill="#F56C28"/>
</svg>
