<svg width="13" height="15" viewBox="0 0 13 15" fill="none" xmlns="http://www.w3.org/2000/svg">
<path d="M6.01331 2.26172C3.90932 2.26172 2.19531 3.97556 2.19531 6.07933C2.19531 8.1831 3.90932 9.89694 6.01331 9.89694C8.11729 9.89694 9.8313 8.1831 9.8313 6.07933C9.8313 3.97556 8.11729 2.26172 6.01331 2.26172ZM6.01331 9.04788C4.37478 9.04788 3.04445 7.71455 3.04445 6.07933C3.04445 4.44411 4.37792 3.11078 6.01331 3.11078C7.64869 3.11078 8.98216 4.44411 8.98216 6.07933C8.98216 7.71455 7.65183 9.04788 6.01331 9.04788Z" fill="#F56C28"/>
<path d="M6.01318 0C2.69838 0 2.39942e-08 2.69811 2.39942e-08 6.01258C2.39942e-08 6.38994 0.0345946 6.77044 0.106929 7.14151C0.110074 7.16352 0.122654 7.22956 0.147814 7.34277C0.239018 7.74843 0.374251 8.1478 0.55037 8.5283C1.19823 10.0535 2.6229 12.3962 5.749 14.9057C5.82763 14.9686 5.92198 15 6.01633 15C6.11068 15 6.20502 14.9686 6.28365 14.9057C9.4066 12.3962 10.8344 10.0535 11.4823 8.5283C11.6584 8.1478 11.7936 7.75157 11.8848 7.34277C11.91 7.22956 11.9226 7.16352 11.9257 7.14151C11.9949 6.77044 12.0327 6.38994 12.0327 6.01258C12.0264 2.69811 9.32798 0 6.01318 0ZM11.0829 6.99371C11.0829 7 11.0797 7.00629 11.0797 7.01258C11.0766 7.0283 11.0671 7.07547 11.0514 7.1478C11.0514 7.15094 11.0514 7.15094 11.0514 7.15409C10.9728 7.50629 10.8564 7.84906 10.7023 8.17925C10.6992 8.18239 10.6992 8.18868 10.696 8.19182C10.1079 9.58491 8.81849 11.7107 6.01318 14.0283C3.20787 11.7107 1.91843 9.58491 1.33032 8.19182C1.32718 8.18868 1.32718 8.18239 1.32403 8.17925C1.17307 7.8522 1.05671 7.50629 0.97494 7.15409C0.97494 7.15094 0.97494 7.15094 0.97494 7.1478C0.956071 7.07547 0.949781 7.0283 0.946636 7.01258C0.946636 7.00629 0.943491 7 0.943491 6.99057C0.880591 6.66667 0.849142 6.33962 0.849142 6.00943C0.849142 3.16352 3.16698 0.845912 6.01318 0.845912C8.85938 0.845912 11.1772 3.16352 11.1772 6.00943C11.1772 6.34277 11.1458 6.67296 11.0829 6.99371Z" fill="#F56C28"/>
</svg>
