<svg width="27" height="36" viewBox="0 0 27 36" fill="none" xmlns="http://www.w3.org/2000/svg">
<path d="M18.6043 12.485C19.3639 12.485 19.9797 11.8693 19.9797 11.1097C19.9797 10.3501 19.3639 9.73438 18.6043 9.73438C17.8448 9.73438 17.229 10.3501 17.229 11.1097C17.229 11.8693 17.8448 12.485 18.6043 12.485Z" fill="#F56C28" stroke="#F56C28" stroke-width="1.6" stroke-miterlimit="10"/>
<path d="M21.6297 18.3708V20.7363L19.9793 22.3867L21.6297 24.0371L19.9793 25.6875L21.6297 27.3379L19.9793 28.9883L21.6297 30.6387V32.8392L18.8791 34.7647L16.1284 32.8392V18.5908C13.7078 17.6006 12.0024 15.235 12.0024 12.4844C12.0024 8.85352 14.9731 5.88281 18.604 5.88281C21.2996 5.88281 23.6652 7.5332 24.6554 9.84375C24.9855 10.6689 25.2056 11.5492 25.2056 12.4844C25.2056 15.015 23.7752 17.2705 21.6297 18.3708Z" stroke="#F56C28" stroke-width="1.6" stroke-miterlimit="10" stroke-linecap="round"/>
<path d="M15.6885 2.80232C17.1188 1.0419 19.6494 0.43676 21.6849 1.59203C23.9954 2.85733 24.8206 5.71801 23.5553 8.02856C22.9502 9.0738 22.07 9.84399 21.0247 10.2291C20.4196 10.4491 19.8145 10.5592 19.1543 10.5041" stroke="#F56C28" stroke-width="1.6" stroke-miterlimit="10" stroke-linecap="round"/>
<path d="M20.6397 6.26814C20.3646 5.71801 19.9795 5.16788 19.4844 4.72778C17.6139 2.85734 14.9183 2.41723 12.6077 3.29744C11.8376 3.62752 11.0674 4.06762 10.4072 4.72778C8.75684 6.37817 8.20671 8.74373 8.75684 10.8892L6.94141 12.7047V15.0702H4.68587V17.3808H2.32031L1 18.7011V22.387H4.90593L12.2777 15.0152" stroke="#F56C28" stroke-width="1.6" stroke-miterlimit="10"/>
<path d="M16.8438 6.10221C16.5137 5.66211 15.9635 5.33203 15.3034 5.33203C14.2581 5.33203 13.3779 6.21224 13.3779 7.25749C13.3779 7.58757 13.488 7.86263 13.598 8.1377C14.4782 7.20247 15.5785 6.4873 16.8438 6.10221Z" fill="#F56C28"/>
</svg>
