<svg width="38" height="38" viewBox="0 0 38 38" fill="none" xmlns="http://www.w3.org/2000/svg">
<path d="M18.9564 1C11.7741 0.998953 5.28295 5.28011 2.45604 11.8826L2.23231 11.9568L2.31905 12.217C-1.40301 21.397 3.02142 31.8561 12.2014 35.5782C14.3454 36.4475 16.6374 36.8938 18.951 36.8925C28.8625 36.894 36.8985 28.8604 36.9 18.9489C36.9015 9.03753 28.8678 1.00142 18.9564 1ZM33.0332 27.9945L32.1116 27.0735V24.9283C32.1127 24.8358 32.0922 24.7442 32.0518 24.6609L29.7188 20.0015V17.7498C29.7188 17.5499 29.619 17.3631 29.4526 17.2521L27.658 16.0557C27.5173 15.9618 27.3435 15.9318 27.1794 15.9732L24.9816 16.5223L21.29 14.9383L20.7822 11.3801L22.1897 9.97313H25.2113L26.2282 11.5016C26.3201 11.639 26.4648 11.7324 26.6279 11.7594L30.2171 12.3576C30.3133 12.3737 30.4118 12.3659 30.5042 12.3349L33.8099 11.233C36.5826 16.5536 36.286 22.9531 33.0332 27.9945ZM30.5659 6.89475L29.5932 7.54321L26.8815 7.00063L25.1222 6.41498C25.0145 6.37842 24.8986 6.37378 24.7884 6.40182L22.5642 6.95756L21.5891 6.63273L22.3118 5.18746H24.3349C24.4277 5.18753 24.5192 5.16607 24.6023 5.12465L26.6721 4.08975C28.0975 4.83377 29.4088 5.77834 30.5659 6.89475ZM12.3989 3.53222L13.8346 4.48935C13.9052 4.53631 13.9849 4.56772 14.0685 4.58148L16.9674 5.06483L16.6844 5.91129L15.174 6.41558C15.0387 6.4606 14.9239 6.55242 14.8503 6.67461L13.1323 9.53763L10.3727 11.1935L6.30491 11.7743C6.01007 11.816 5.79083 12.0682 5.79045 12.366V14.1606C5.79045 14.3193 5.85356 14.4714 5.96573 14.5835L6.98687 15.6047V16.6324L4.49832 14.973L3.59563 12.2649C5.31308 8.34062 8.46093 5.21797 12.3989 3.53222ZM10.6958 23.1457L7.99186 22.6043L6.98687 20.5997V19.1939L9.2158 16.965L10.0407 18.6154C10.142 18.8182 10.3494 18.9463 10.5761 18.9463H14.425L16.0455 21.6472C16.1537 21.8272 16.3482 21.9372 16.5582 21.9373H18.2212L17.8025 24.0352L15.5377 26.3C15.4253 26.4121 15.362 26.5642 15.3618 26.723V28.2185L13.2082 29.8337C13.0576 29.9466 12.969 30.1239 12.969 30.3122V32.473L12.2248 32.2265L11.1743 29.5992V23.7319C11.1744 23.4476 10.9743 23.2025 10.6958 23.1457ZM8.89755 32.3417C3.25726 28.1102 0.871982 20.7989 2.93161 14.0553L3.42873 15.546C3.4706 15.6722 3.5533 15.7808 3.66382 15.8547L6.64589 17.8426L5.96573 18.5233C5.85356 18.6355 5.79045 18.7876 5.79045 18.9463V20.7409C5.79038 20.8337 5.81184 20.9252 5.85327 21.0083L7.04968 23.4011C7.13253 23.5664 7.2871 23.6841 7.46843 23.72L9.9809 24.2219V29.714C9.98083 29.79 9.99526 29.8654 10.0234 29.9359L11.2198 32.927C11.2853 33.0904 11.4194 33.2167 11.5865 33.2722L13.3811 33.8704C13.4411 33.8907 13.5039 33.9012 13.5672 33.9015C13.8975 33.9015 14.1654 33.6336 14.1654 33.3033V30.6113L16.3189 28.9962C16.4695 28.8832 16.5582 28.7059 16.5582 28.5176V26.9706L18.7758 24.7531C18.8591 24.6695 18.916 24.5631 18.9391 24.4474L19.5373 21.4563C19.602 21.1323 19.3919 20.8172 19.0679 20.7525C19.0294 20.7448 18.9903 20.7409 18.951 20.7409H16.8968L15.2762 18.04C15.1681 17.86 14.9736 17.7499 14.7636 17.7498H10.9458L9.91809 15.6878C9.83203 15.5157 9.66842 15.3954 9.47841 15.3648C9.28848 15.332 9.09458 15.3946 8.95976 15.5323L8.18329 16.3058V15.357C8.18329 15.1983 8.12018 15.0462 8.00801 14.9341L6.98687 13.9129V12.8846L10.6611 12.36C10.74 12.3485 10.8159 12.3215 10.8842 12.2804L13.8752 10.4858C13.9591 10.4354 14.0294 10.3651 14.0798 10.2812L15.7608 7.4798L17.3455 6.95098C17.5244 6.89228 17.6648 6.75193 17.7235 6.57291L18.3217 4.77829C18.4254 4.4646 18.2551 4.12624 17.9414 4.0226C17.9125 4.01303 17.8828 4.0057 17.8527 4.00061L14.3903 3.42334L13.7819 3.01776C17.5464 1.79248 21.6236 1.94412 25.2867 3.44548L24.1937 3.99104H21.9421C21.7142 3.98977 21.5055 4.11809 21.4037 4.32185L20.2073 6.71469C20.0599 7.01035 20.1801 7.36958 20.4757 7.51696C20.5009 7.52952 20.5269 7.54029 20.5536 7.54919L22.3483 8.1474C22.4559 8.18396 22.5718 8.1886 22.6821 8.16056L24.9062 7.60482L26.5357 8.1474C26.5591 8.15577 26.5831 8.1622 26.6075 8.16654L29.5986 8.76475C29.7541 8.79645 29.9159 8.7646 30.0478 8.67621L31.4093 7.76813C32.0794 8.51447 32.6816 9.31906 33.2087 10.1723L30.2656 11.1534L27.0789 10.6222L26.0261 9.04292C25.9157 8.87744 25.7302 8.77768 25.5313 8.77671H21.9421C21.7834 8.77671 21.6313 8.83982 21.5191 8.95199L19.7245 10.7466C19.5913 10.8798 19.5285 11.068 19.5552 11.2545L20.1534 15.442C20.1836 15.649 20.3197 15.8253 20.5124 15.9068L24.6998 17.7014C24.8198 17.7534 24.9536 17.764 25.0803 17.7319L27.2165 17.1977L28.5224 18.0699V20.1427C28.5213 20.2352 28.5418 20.3268 28.5822 20.4101L30.9152 25.0695V27.3212C30.9152 27.4799 30.9783 27.6319 31.0905 27.7441L32.3419 28.9962C26.7918 36.394 16.2954 37.8919 8.89755 32.3417Z" fill="#F56E28" stroke="#F56E28" stroke-width="0.6"/>
</svg>
