<svg width="37" height="32" viewBox="0 0 37 32" fill="none" xmlns="http://www.w3.org/2000/svg">
<path d="M27.9458 13.3254C27.945 13.3189 27.9445 13.3122 27.9436 13.3057C27.9389 13.2734 27.9328 13.2411 27.924 13.2092C27.924 13.2089 27.9238 13.2086 27.9237 13.2082C27.9155 13.1784 27.9051 13.149 27.8934 13.1199C27.89 13.1116 27.8863 13.1036 27.8827 13.0954C27.8734 13.0744 27.8631 13.0538 27.8519 13.0334C27.847 13.0245 27.8423 13.0156 27.837 13.0069C27.8342 13.0022 27.8319 12.9973 27.829 12.9926C27.8171 12.9737 27.8041 12.956 27.791 12.9385C27.7885 12.9352 27.7865 12.9318 27.784 12.9286C27.764 12.9026 27.7424 12.8785 27.7197 12.8557C27.7155 12.8514 27.7108 12.8474 27.7064 12.8432C27.6867 12.8242 27.6663 12.8064 27.645 12.7897C27.6396 12.7854 27.6343 12.7812 27.6287 12.7771C27.6002 12.756 27.5708 12.7363 27.5401 12.7192L15.7408 6.01215L22.5344 1.73417L33.9238 8.20808L29.1271 11.2286C28.7528 11.4642 28.6404 11.9587 28.8761 12.333C29.1118 12.7074 29.6063 12.8197 29.9806 12.584L35.9093 8.85073C36.1477 8.70072 36.2897 8.4365 36.2833 8.1549C36.277 7.8733 36.1233 7.61589 35.8783 7.47669L22.9091 0.104633C22.6526 -0.0412928 22.3365 -0.0340846 22.0866 0.123134L13.7607 5.36597C13.7591 5.36701 13.7573 5.36814 13.7556 5.36918L9.59516 7.98903C9.59324 7.99024 9.59132 7.99144 9.58948 7.99264L1.25794 13.2391C1.01959 13.3891 0.87759 13.6533 0.883997 13.9349C0.890324 14.2165 1.04402 14.4739 1.28893 14.6131L14.2583 21.9852C14.3811 22.0551 14.5176 22.0899 14.654 22.0899C14.8024 22.0899 14.9506 22.0486 15.0807 21.9667L21.0095 18.2333C21.3838 17.9977 21.4962 17.5031 21.2605 17.1289C21.0249 16.7545 20.5303 16.6421 20.156 16.8779L14.6329 20.3557L3.24353 13.8817L10.0373 9.60359L22.1845 16.5084V25.6534C22.1845 25.945 22.343 26.2136 22.5984 26.3545C22.7191 26.4212 22.8523 26.4543 22.9854 26.4543C23.1339 26.4543 23.2821 26.413 23.4122 26.3311L27.578 23.7079C27.8109 23.5612 27.9521 23.3053 27.9521 23.0301V13.4192C27.9521 13.4145 27.9513 13.41 27.9512 13.4053C27.9507 13.3787 27.9489 13.3521 27.9458 13.3254ZM23.7863 24.2027V16.0425C23.7863 15.7544 23.6316 15.4886 23.3812 15.3463L11.575 8.63537L14.203 6.98045L25.5923 13.4544L24.5951 14.0824C24.2207 14.318 24.1084 14.8125 24.3441 15.1868C24.4963 15.4287 24.7565 15.5611 25.0226 15.5611C25.1684 15.5611 25.3161 15.5213 25.4485 15.4378L26.3503 14.8701V22.5881L23.7863 24.2027Z" fill="#F26F21"/>
<path d="M35.056 10.7005L29.1272 14.4338C28.7529 14.6694 28.6405 15.1639 28.8762 15.5382C29.0284 15.7801 29.2886 15.9125 29.5547 15.9125C29.7005 15.9125 29.8482 15.8727 29.9807 15.7892L35.9094 12.0559C36.2837 11.8203 36.3961 11.3257 36.1604 10.9515C35.9248 10.5771 35.4302 10.4647 35.056 10.7005Z" fill="#F26F21"/>
<path d="M20.1556 20.0833L14.6325 23.5611L2.0801 16.4261C1.69582 16.2076 1.20663 16.3418 0.988067 16.7266C0.769501 17.1111 0.903972 17.6 1.28857 17.8186L14.2579 25.1907C14.3807 25.2606 14.5172 25.2953 14.6536 25.2953C14.802 25.2953 14.9502 25.2541 15.0803 25.1722L21.0091 21.4388C21.3834 21.2032 21.4958 20.7086 21.2601 20.3343C21.0245 19.9599 20.5299 19.8475 20.1556 20.0833Z" fill="#F26F21"/>
<path d="M35.056 13.9026L29.1272 17.6359C28.7529 17.8715 28.6405 18.3661 28.8762 18.7404C29.0284 18.9822 29.2886 19.1146 29.5547 19.1146C29.7005 19.1146 29.8482 19.0748 29.9807 18.9914L35.9094 15.2581C36.2837 15.0225 36.3961 14.5279 36.1604 14.1536C35.9248 13.7792 35.4302 13.6668 35.056 13.9026Z" fill="#F26F21"/>
<path d="M20.1556 23.2864L14.6325 26.7642L2.0801 19.6292C1.69582 19.4107 1.20663 19.5449 0.988067 19.9297C0.769501 20.3142 0.903972 20.8032 1.28857 21.0217L14.2579 28.3938C14.3807 28.4637 14.5172 28.4985 14.6536 28.4985C14.802 28.4985 14.9502 28.4572 15.0803 28.3753L21.0091 24.6419C21.3834 24.4063 21.4958 23.9117 21.2601 23.5375C21.0245 23.163 20.5299 23.0506 20.1556 23.2864Z" fill="#F26F21"/>
<path d="M35.056 17.1077L29.1272 20.8409C28.7529 21.0766 28.6405 21.5711 28.8762 21.9454C29.0284 22.1873 29.2886 22.3197 29.5547 22.3197C29.7005 22.3197 29.8482 22.2799 29.9807 22.1964L35.9094 18.4631C36.2837 18.2275 36.3961 17.7329 36.1604 17.3587C35.9248 16.9843 35.4302 16.872 35.056 17.1077Z" fill="#F26F21"/>
<path d="M20.1556 26.4895L14.6325 29.9674L2.0801 22.8323C1.69582 22.6138 1.20663 22.748 0.988067 23.1328C0.769501 23.5173 0.903972 24.0063 1.28857 24.2248L14.2579 31.5969C14.3807 31.6668 14.5172 31.7016 14.6536 31.7016C14.802 31.7016 14.9502 31.6603 15.0803 31.5784L21.0091 27.845C21.3834 27.6094 21.4958 27.1149 21.2601 26.7406C21.0245 26.3662 20.5299 26.2537 20.1556 26.4895Z" fill="#F26F21"/>
</svg>
