<svg width="92" height="70" viewBox="0 0 92 70" fill="none" xmlns="http://www.w3.org/2000/svg">
<path d="M28.8213 0L7.20205 33.1005C2.40068 40.2254 0 46.0883 0 50.6892C0 55.9737 1.771 60.5089 5.31299 64.308C8.85498 68.0939 13.2497 70 18.5233 70C23.5477 70 27.8374 68.2253 31.3926 64.6498C34.9346 61.0873 36.7055 56.6573 36.7055 51.3728C36.7055 47.2319 35.5511 43.4986 33.2685 40.1728C30.9728 36.8469 27.8899 34.4808 24.0068 33.1005L42.8844 0.0131455L28.8213 0ZM73.1356 33.1005L92 0H77.937L56.3308 33.1005C51.5294 40.2254 49.1288 46.0883 49.1288 50.6892C49.1288 55.9869 50.8998 60.5089 54.4418 64.308C57.9837 68.0939 62.3784 70 67.6521 70C72.6765 70 76.9662 68.2253 80.5213 64.6498C84.0633 61.0873 85.8343 56.6573 85.8343 51.3728C85.8343 47.2319 84.6799 43.4986 82.3973 40.1728C80.1015 36.8338 77.0187 34.4808 73.1356 33.1005Z" fill="#FFE8DA"/>
</svg>
