<svg width="14" height="15" viewBox="0 0 14 15" fill="none" xmlns="http://www.w3.org/2000/svg">
<path d="M12.0925 5.66004V5.08778C12.0925 3.71811 11.6078 2.44539 10.7291 1.501C9.82845 0.531606 8.59012 0 7.23922 0H6.76703C5.41612 0 4.17779 0.531606 3.27719 1.501C2.39848 2.44539 1.91378 3.71811 1.91378 5.08778V5.66004C0.847442 5.73196 0 6.62005 0 7.70515V8.5995C0 9.72838 0.919365 10.6477 2.04825 10.6477H3.20214C3.40853 10.6477 3.57739 10.4789 3.57739 10.2725V6.02903C3.57739 5.82264 3.40853 5.65378 3.20214 5.65378H2.66428V5.08778C2.66428 2.61425 4.42796 0.750502 6.7639 0.750502H7.23609C9.57516 0.750502 11.3357 2.61425 11.3357 5.08778V5.65378H10.7978C10.5915 5.65378 10.4226 5.82264 10.4226 6.02903V10.2694C10.4226 10.4758 10.5915 10.6446 10.7978 10.6446H11.3232C11.17 12.6022 9.8222 13.0556 9.19678 13.1588C9.02479 12.6303 8.52758 12.2488 7.94281 12.2488H7.00469C6.2792 12.2488 5.68818 12.8398 5.68818 13.5653C5.68818 14.2908 6.2792 14.885 7.00469 14.885H7.94594C8.5526 14.885 9.06231 14.4722 9.21554 13.9156C9.522 13.8718 10.0067 13.7623 10.4883 13.4809C11.1668 13.0838 11.9705 12.2738 12.0768 10.6415C13.1494 10.5758 14 9.6846 14 8.59638V7.70203C14.0031 6.62005 13.1588 5.72883 12.0925 5.66004ZM2.83315 9.89412H2.0545C1.3384 9.89412 0.756756 9.31248 0.756756 8.59638V7.70203C0.756756 6.98592 1.3384 6.40428 2.0545 6.40428H2.83315V9.89412ZM7.94594 14.1345H7.00469C6.69198 14.1345 6.43868 13.8812 6.43868 13.5685C6.43868 13.2557 6.69198 13.0024 7.00469 13.0024H7.94594C8.25865 13.0024 8.51194 13.2557 8.51194 13.5685C8.51194 13.8812 8.25865 14.1345 7.94594 14.1345ZM13.2526 8.59638C13.2526 9.31248 12.671 9.89412 11.9549 9.89412H11.1762V6.40428H11.9549C12.671 6.40428 13.2526 6.98592 13.2526 7.70203V8.59638Z" fill="#F56C28"/>
</svg>
