<svg width="21" height="20" viewBox="0 0 21 20" fill="none" xmlns="http://www.w3.org/2000/svg">
<path d="M15.9088 13.5412C18.5868 9.55525 17.5254 4.15474 13.5416 1.47891C9.55786 -1.19692 4.15513 -0.139911 1.4793 3.84608C-1.19652 7.83206 -0.137296 13.2326 3.84647 15.9084C6.77767 17.8781 10.6104 17.8781 13.5416 15.9084L17.3677 19.7345C17.723 20.0898 18.3004 20.0898 18.6557 19.7345L19.7371 18.6531C20.0924 18.2978 20.0924 17.7204 19.7371 17.3651L15.9088 13.5412ZM8.70071 15.3777C5.01451 15.3777 2.02557 12.3887 2.02557 8.70254C2.02557 5.01633 5.01451 2.02518 8.70071 2.02518C12.3869 2.02518 15.3758 5.01411 15.3758 8.70032C15.3736 12.3865 12.3869 15.3732 8.70071 15.3777Z" fill="#909CAA"/>
</svg>
