<svg width="23" height="16" viewBox="0 0 23 16" fill="none" xmlns="http://www.w3.org/2000/svg">
<path d="M22.7367 7.99999C22.7367 7.80513 22.6189 7.54639 22.4993 7.42084L15.7626 0.262831C15.4481 -0.0623469 14.9385 -0.100032 14.5718 0.229988C14.244 0.525019 14.2358 1.10042 14.539 1.4208L19.9467 7.15773H0.842103C0.37701 7.15773 0 7.53474 0 7.99983C0 8.46493 0.37701 8.84196 0.842103 8.84196H19.9467L14.539 14.5789C14.2358 14.8992 14.2574 15.4605 14.5718 15.7697C14.9038 16.0961 15.4529 16.067 15.7626 15.7368L22.4993 8.57886C22.6972 8.38471 22.7334 8.19771 22.7367 7.99999Z" fill="#F26F21"/>
</svg>
