<svg width="37" height="36" viewBox="0 0 37 36" fill="none" xmlns="http://www.w3.org/2000/svg">
<path d="M18.8125 0C8.8705 0 0.8125 8.05875 0.8125 18C0.8125 27.9416 8.8705 36 18.8125 36C28.7538 36 36.8125 27.9416 36.8125 18C36.8125 8.05875 28.7538 0 18.8125 0ZM26.1329 14.7457C26.1404 14.898 26.143 15.051 26.143 15.2048C26.143 19.8896 22.5768 25.2919 16.0563 25.2919C14.0545 25.2919 12.1911 24.7046 10.6225 23.6985C10.8992 23.7319 11.1812 23.7484 11.4677 23.7484C13.129 23.7484 14.6575 23.1817 15.871 22.2304C14.3196 22.2022 13.0101 21.177 12.559 19.7689C12.7757 19.8097 12.9978 19.8326 13.2261 19.8326C13.549 19.8326 13.8625 19.7891 14.1599 19.7081C12.5384 19.3823 11.3159 17.9498 11.3159 16.2315C11.3159 16.2165 11.3159 16.2019 11.3166 16.1873C11.794 16.4528 12.3411 16.6121 12.922 16.6309C11.9706 15.9949 11.3451 14.91 11.3451 13.6796C11.3451 13.0301 11.5195 12.4215 11.8247 11.8976C13.573 14.0426 16.1856 15.4537 19.132 15.6019C19.0713 15.3424 19.0405 15.0716 19.0405 14.7938C19.0405 12.8359 20.6275 11.2489 22.5854 11.2489C23.605 11.2489 24.5264 11.6794 25.1729 12.3682C25.9806 12.2092 26.7396 11.9145 27.4244 11.508C27.1592 12.3356 26.5975 13.0309 25.8659 13.4692C26.5829 13.3834 27.2661 13.1933 27.9021 12.9113C27.4274 13.6215 26.8259 14.2462 26.1329 14.7457Z" fill="#FDFDFD"/>
</svg>
