<svg width="37" height="36" viewBox="0 0 37 36" fill="none" xmlns="http://www.w3.org/2000/svg">
<path d="M16.2578 21.3724L22.113 18.0002L16.2578 14.6279V21.3724Z" fill="#95999D"/>
<path d="M18.5 0C8.56039 0 0.5 8.06039 0.5 18C0.5 27.9396 8.56039 36 18.5 36C28.4396 36 36.5 27.9396 36.5 18C36.5 8.06039 28.4396 0 18.5 0ZM29.7473 18.0184C29.7473 18.0184 29.7473 21.6689 29.2842 23.4292C29.0246 24.3927 28.2649 25.1524 27.3014 25.4117C25.5411 25.875 18.5 25.875 18.5 25.875C18.5 25.875 11.4773 25.875 9.69858 25.3932C8.73508 25.134 7.97537 24.374 7.71582 23.4105C7.25247 21.6689 7.25247 18 7.25247 18C7.25247 18 7.25247 14.3498 7.71582 12.5895C7.9751 11.626 8.75348 10.8476 9.69858 10.5883C11.4589 10.125 18.5 10.125 18.5 10.125C18.5 10.125 25.5411 10.125 27.3014 10.6068C28.2649 10.866 29.0246 11.626 29.2842 12.5895C29.7659 14.3498 29.7473 18.0184 29.7473 18.0184V18.0184Z" fill="#95999D"/>
</svg>
